<?xml version="1.0" encoding="utf-8" standalone="no"?>
<!DOCTYPE svg PUBLIC "-//W3C//DTD SVG 1.1//EN"
  "http://www.w3.org/Graphics/SVG/1.1/DTD/svg11.dtd">
<svg xmlns:xlink="http://www.w3.org/1999/xlink" width="576pt" height="360pt" viewBox="0 0 576 360" xmlns="http://www.w3.org/2000/svg" version="1.1">
 <metadata>
  <rdf:RDF xmlns:dc="http://purl.org/dc/elements/1.1/" xmlns:cc="http://creativecommons.org/ns#" xmlns:rdf="http://www.w3.org/1999/02/22-rdf-syntax-ns#">
   <cc:Work>
    <dc:type rdf:resource="http://purl.org/dc/dcmitype/StillImage"/>
    <dc:date>2023-11-01T13:34:10.704050</dc:date>
    <dc:format>image/svg+xml</dc:format>
    <dc:creator>
     <cc:Agent>
      <dc:title>Matplotlib v3.5.2, https://matplotlib.org/</dc:title>
     </cc:Agent>
    </dc:creator>
   </cc:Work>
  </rdf:RDF>
 </metadata>
 <defs>
  <style type="text/css">*{stroke-linejoin: round; stroke-linecap: butt}</style>
 </defs>
 <g id="figure_1">
  <g id="patch_1">
   <path d="M 0 360 
L 576 360 
L 576 0 
L 0 0 
z
" style="fill: #ffffff"/>
  </g>
  <g id="axes_1">
   <g id="patch_2">
    <path d="M 39.77 316.54 
L 559.75118 316.54 
L 559.75118 25.44 
L 39.77 25.44 
z
" style="fill: #ffffff"/>
   </g>
   <g id="matplotlib.axis_1">
    <g id="xtick_1">
     <g id="line2d_1">
      <path d="M 63.405196 316.54 
L 63.405196 25.44 
" clip-path="url(#p0d64a99309)" style="fill: none; stroke: #808080; stroke-opacity: 0.3; stroke-width: 0.8; stroke-linecap: square"/>
     </g>
     <g id="line2d_2">
      <defs>
       <path id="m1f54c820f9" d="M 0 0 
L 0 5 
" style="stroke: #000000; stroke-width: 0.75"/>
      </defs>
      <g>
       <use xlink:href="#m1f54c820f9" x="63.405196" y="316.54" style="stroke: #000000; stroke-width: 0.75"/>
      </g>
     </g>
     <g id="text_1">
      <!-- 0.0 -->
      <g transform="translate(55.453634 332.638438)scale(0.1 -0.1)">
       <defs>
        <path id="DejaVuSans-30" d="M 2034 4250 
Q 1547 4250 1301 3770 
Q 1056 3291 1056 2328 
Q 1056 1369 1301 889 
Q 1547 409 2034 409 
Q 2525 409 2770 889 
Q 3016 1369 3016 2328 
Q 3016 3291 2770 3770 
Q 2525 4250 2034 4250 
z
M 2034 4750 
Q 2819 4750 3233 4129 
Q 3647 3509 3647 2328 
Q 3647 1150 3233 529 
Q 2819 -91 2034 -91 
Q 1250 -91 836 529 
Q 422 1150 422 2328 
Q 422 3509 836 4129 
Q 1250 4750 2034 4750 
z
" transform="scale(0.015625)"/>
        <path id="DejaVuSans-2e" d="M 684 794 
L 1344 794 
L 1344 0 
L 684 0 
L 684 794 
z
" transform="scale(0.015625)"/>
       </defs>
       <use xlink:href="#DejaVuSans-30"/>
       <use xlink:href="#DejaVuSans-2e" x="63.623047"/>
       <use xlink:href="#DejaVuSans-30" x="95.410156"/>
      </g>
     </g>
    </g>
    <g id="xtick_2">
     <g id="line2d_3">
      <path d="M 133.893061 316.54 
L 133.893061 25.44 
" clip-path="url(#p0d64a99309)" style="fill: none; stroke: #808080; stroke-opacity: 0.3; stroke-width: 0.8; stroke-linecap: square"/>
     </g>
     <g id="line2d_4">
      <g>
       <use xlink:href="#m1f54c820f9" x="133.893061" y="316.54" style="stroke: #000000; stroke-width: 0.75"/>
      </g>
     </g>
     <g id="text_2">
      <!-- 0.5 -->
      <g transform="translate(125.941499 332.638438)scale(0.1 -0.1)">
       <defs>
        <path id="DejaVuSans-35" d="M 691 4666 
L 3169 4666 
L 3169 4134 
L 1269 4134 
L 1269 2991 
Q 1406 3038 1543 3061 
Q 1681 3084 1819 3084 
Q 2600 3084 3056 2656 
Q 3513 2228 3513 1497 
Q 3513 744 3044 326 
Q 2575 -91 1722 -91 
Q 1428 -91 1123 -41 
Q 819 9 494 109 
L 494 744 
Q 775 591 1075 516 
Q 1375 441 1709 441 
Q 2250 441 2565 725 
Q 2881 1009 2881 1497 
Q 2881 1984 2565 2268 
Q 2250 2553 1709 2553 
Q 1456 2553 1204 2497 
Q 953 2441 691 2322 
L 691 4666 
z
" transform="scale(0.015625)"/>
       </defs>
       <use xlink:href="#DejaVuSans-30"/>
       <use xlink:href="#DejaVuSans-2e" x="63.623047"/>
       <use xlink:href="#DejaVuSans-35" x="95.410156"/>
      </g>
     </g>
    </g>
    <g id="xtick_3">
     <g id="line2d_5">
      <path d="M 204.380927 316.54 
L 204.380927 25.44 
" clip-path="url(#p0d64a99309)" style="fill: none; stroke: #808080; stroke-opacity: 0.3; stroke-width: 0.8; stroke-linecap: square"/>
     </g>
     <g id="line2d_6">
      <g>
       <use xlink:href="#m1f54c820f9" x="204.380927" y="316.54" style="stroke: #000000; stroke-width: 0.75"/>
      </g>
     </g>
     <g id="text_3">
      <!-- 1.0 -->
      <g transform="translate(196.429364 332.638438)scale(0.1 -0.1)">
       <defs>
        <path id="DejaVuSans-31" d="M 794 531 
L 1825 531 
L 1825 4091 
L 703 3866 
L 703 4441 
L 1819 4666 
L 2450 4666 
L 2450 531 
L 3481 531 
L 3481 0 
L 794 0 
L 794 531 
z
" transform="scale(0.015625)"/>
       </defs>
       <use xlink:href="#DejaVuSans-31"/>
       <use xlink:href="#DejaVuSans-2e" x="63.623047"/>
       <use xlink:href="#DejaVuSans-30" x="95.410156"/>
      </g>
     </g>
    </g>
    <g id="xtick_4">
     <g id="line2d_7">
      <path d="M 274.868792 316.54 
L 274.868792 25.44 
" clip-path="url(#p0d64a99309)" style="fill: none; stroke: #808080; stroke-opacity: 0.3; stroke-width: 0.8; stroke-linecap: square"/>
     </g>
     <g id="line2d_8">
      <g>
       <use xlink:href="#m1f54c820f9" x="274.868792" y="316.54" style="stroke: #000000; stroke-width: 0.75"/>
      </g>
     </g>
     <g id="text_4">
      <!-- 1.5 -->
      <g transform="translate(266.917229 332.638438)scale(0.1 -0.1)">
       <use xlink:href="#DejaVuSans-31"/>
       <use xlink:href="#DejaVuSans-2e" x="63.623047"/>
       <use xlink:href="#DejaVuSans-35" x="95.410156"/>
      </g>
     </g>
    </g>
    <g id="xtick_5">
     <g id="line2d_9">
      <path d="M 345.356657 316.54 
L 345.356657 25.44 
" clip-path="url(#p0d64a99309)" style="fill: none; stroke: #808080; stroke-opacity: 0.3; stroke-width: 0.8; stroke-linecap: square"/>
     </g>
     <g id="line2d_10">
      <g>
       <use xlink:href="#m1f54c820f9" x="345.356657" y="316.54" style="stroke: #000000; stroke-width: 0.75"/>
      </g>
     </g>
     <g id="text_5">
      <!-- 2.0 -->
      <g transform="translate(337.405094 332.638438)scale(0.1 -0.1)">
       <defs>
        <path id="DejaVuSans-32" d="M 1228 531 
L 3431 531 
L 3431 0 
L 469 0 
L 469 531 
Q 828 903 1448 1529 
Q 2069 2156 2228 2338 
Q 2531 2678 2651 2914 
Q 2772 3150 2772 3378 
Q 2772 3750 2511 3984 
Q 2250 4219 1831 4219 
Q 1534 4219 1204 4116 
Q 875 4013 500 3803 
L 500 4441 
Q 881 4594 1212 4672 
Q 1544 4750 1819 4750 
Q 2544 4750 2975 4387 
Q 3406 4025 3406 3419 
Q 3406 3131 3298 2873 
Q 3191 2616 2906 2266 
Q 2828 2175 2409 1742 
Q 1991 1309 1228 531 
z
" transform="scale(0.015625)"/>
       </defs>
       <use xlink:href="#DejaVuSans-32"/>
       <use xlink:href="#DejaVuSans-2e" x="63.623047"/>
       <use xlink:href="#DejaVuSans-30" x="95.410156"/>
      </g>
     </g>
    </g>
    <g id="xtick_6">
     <g id="line2d_11">
      <path d="M 415.844522 316.54 
L 415.844522 25.44 
" clip-path="url(#p0d64a99309)" style="fill: none; stroke: #808080; stroke-opacity: 0.3; stroke-width: 0.8; stroke-linecap: square"/>
     </g>
     <g id="line2d_12">
      <g>
       <use xlink:href="#m1f54c820f9" x="415.844522" y="316.54" style="stroke: #000000; stroke-width: 0.75"/>
      </g>
     </g>
     <g id="text_6">
      <!-- 2.5 -->
      <g transform="translate(407.892959 332.638438)scale(0.1 -0.1)">
       <use xlink:href="#DejaVuSans-32"/>
       <use xlink:href="#DejaVuSans-2e" x="63.623047"/>
       <use xlink:href="#DejaVuSans-35" x="95.410156"/>
      </g>
     </g>
    </g>
    <g id="xtick_7">
     <g id="line2d_13">
      <path d="M 486.332387 316.54 
L 486.332387 25.44 
" clip-path="url(#p0d64a99309)" style="fill: none; stroke: #808080; stroke-opacity: 0.3; stroke-width: 0.8; stroke-linecap: square"/>
     </g>
     <g id="line2d_14">
      <g>
       <use xlink:href="#m1f54c820f9" x="486.332387" y="316.54" style="stroke: #000000; stroke-width: 0.75"/>
      </g>
     </g>
     <g id="text_7">
      <!-- 3.0 -->
      <g transform="translate(478.380825 332.638438)scale(0.1 -0.1)">
       <defs>
        <path id="DejaVuSans-33" d="M 2597 2516 
Q 3050 2419 3304 2112 
Q 3559 1806 3559 1356 
Q 3559 666 3084 287 
Q 2609 -91 1734 -91 
Q 1441 -91 1130 -33 
Q 819 25 488 141 
L 488 750 
Q 750 597 1062 519 
Q 1375 441 1716 441 
Q 2309 441 2620 675 
Q 2931 909 2931 1356 
Q 2931 1769 2642 2001 
Q 2353 2234 1838 2234 
L 1294 2234 
L 1294 2753 
L 1863 2753 
Q 2328 2753 2575 2939 
Q 2822 3125 2822 3475 
Q 2822 3834 2567 4026 
Q 2313 4219 1838 4219 
Q 1578 4219 1281 4162 
Q 984 4106 628 3988 
L 628 4550 
Q 988 4650 1302 4700 
Q 1616 4750 1894 4750 
Q 2613 4750 3031 4423 
Q 3450 4097 3450 3541 
Q 3450 3153 3228 2886 
Q 3006 2619 2597 2516 
z
" transform="scale(0.015625)"/>
       </defs>
       <use xlink:href="#DejaVuSans-33"/>
       <use xlink:href="#DejaVuSans-2e" x="63.623047"/>
       <use xlink:href="#DejaVuSans-30" x="95.410156"/>
      </g>
     </g>
    </g>
    <g id="xtick_8">
     <g id="line2d_15">
      <path d="M 556.820252 316.54 
L 556.820252 25.44 
" clip-path="url(#p0d64a99309)" style="fill: none; stroke: #808080; stroke-opacity: 0.3; stroke-width: 0.8; stroke-linecap: square"/>
     </g>
     <g id="line2d_16">
      <g>
       <use xlink:href="#m1f54c820f9" x="556.820252" y="316.54" style="stroke: #000000; stroke-width: 0.75"/>
      </g>
     </g>
     <g id="text_8">
      <!-- 3.5 -->
      <g transform="translate(548.86869 332.638438)scale(0.1 -0.1)">
       <use xlink:href="#DejaVuSans-33"/>
       <use xlink:href="#DejaVuSans-2e" x="63.623047"/>
       <use xlink:href="#DejaVuSans-35" x="95.410156"/>
      </g>
     </g>
    </g>
    <g id="xtick_9">
     <g id="line2d_17">
      <path d="M 49.307623 316.54 
L 49.307623 25.44 
" clip-path="url(#p0d64a99309)" style="fill: none; stroke: #d3d3d3; stroke-opacity: 0.2; stroke-width: 0.8; stroke-linecap: square"/>
     </g>
     <g id="line2d_18">
      <defs>
       <path id="md2916d0cbe" d="M 0 0 
L 0 2 
" style="stroke: #000000; stroke-width: 0.6"/>
      </defs>
      <g>
       <use xlink:href="#md2916d0cbe" x="49.307623" y="316.54" style="stroke: #000000; stroke-width: 0.6"/>
      </g>
     </g>
    </g>
    <g id="xtick_10">
     <g id="line2d_19">
      <path d="M 77.502769 316.54 
L 77.502769 25.44 
" clip-path="url(#p0d64a99309)" style="fill: none; stroke: #d3d3d3; stroke-opacity: 0.2; stroke-width: 0.8; stroke-linecap: square"/>
     </g>
     <g id="line2d_20">
      <g>
       <use xlink:href="#md2916d0cbe" x="77.502769" y="316.54" style="stroke: #000000; stroke-width: 0.6"/>
      </g>
     </g>
    </g>
    <g id="xtick_11">
     <g id="line2d_21">
      <path d="M 91.600342 316.54 
L 91.600342 25.44 
" clip-path="url(#p0d64a99309)" style="fill: none; stroke: #d3d3d3; stroke-opacity: 0.2; stroke-width: 0.8; stroke-linecap: square"/>
     </g>
     <g id="line2d_22">
      <g>
       <use xlink:href="#md2916d0cbe" x="91.600342" y="316.54" style="stroke: #000000; stroke-width: 0.6"/>
      </g>
     </g>
    </g>
    <g id="xtick_12">
     <g id="line2d_23">
      <path d="M 105.697915 316.54 
L 105.697915 25.44 
" clip-path="url(#p0d64a99309)" style="fill: none; stroke: #d3d3d3; stroke-opacity: 0.2; stroke-width: 0.8; stroke-linecap: square"/>
     </g>
     <g id="line2d_24">
      <g>
       <use xlink:href="#md2916d0cbe" x="105.697915" y="316.54" style="stroke: #000000; stroke-width: 0.6"/>
      </g>
     </g>
    </g>
    <g id="xtick_13">
     <g id="line2d_25">
      <path d="M 119.795488 316.54 
L 119.795488 25.44 
" clip-path="url(#p0d64a99309)" style="fill: none; stroke: #d3d3d3; stroke-opacity: 0.2; stroke-width: 0.8; stroke-linecap: square"/>
     </g>
     <g id="line2d_26">
      <g>
       <use xlink:href="#md2916d0cbe" x="119.795488" y="316.54" style="stroke: #000000; stroke-width: 0.6"/>
      </g>
     </g>
    </g>
    <g id="xtick_14">
     <g id="line2d_27">
      <path d="M 147.990634 316.54 
L 147.990634 25.44 
" clip-path="url(#p0d64a99309)" style="fill: none; stroke: #d3d3d3; stroke-opacity: 0.2; stroke-width: 0.8; stroke-linecap: square"/>
     </g>
     <g id="line2d_28">
      <g>
       <use xlink:href="#md2916d0cbe" x="147.990634" y="316.54" style="stroke: #000000; stroke-width: 0.6"/>
      </g>
     </g>
    </g>
    <g id="xtick_15">
     <g id="line2d_29">
      <path d="M 162.088207 316.54 
L 162.088207 25.44 
" clip-path="url(#p0d64a99309)" style="fill: none; stroke: #d3d3d3; stroke-opacity: 0.2; stroke-width: 0.8; stroke-linecap: square"/>
     </g>
     <g id="line2d_30">
      <g>
       <use xlink:href="#md2916d0cbe" x="162.088207" y="316.54" style="stroke: #000000; stroke-width: 0.6"/>
      </g>
     </g>
    </g>
    <g id="xtick_16">
     <g id="line2d_31">
      <path d="M 176.185781 316.54 
L 176.185781 25.44 
" clip-path="url(#p0d64a99309)" style="fill: none; stroke: #d3d3d3; stroke-opacity: 0.2; stroke-width: 0.8; stroke-linecap: square"/>
     </g>
     <g id="line2d_32">
      <g>
       <use xlink:href="#md2916d0cbe" x="176.185781" y="316.54" style="stroke: #000000; stroke-width: 0.6"/>
      </g>
     </g>
    </g>
    <g id="xtick_17">
     <g id="line2d_33">
      <path d="M 190.283354 316.54 
L 190.283354 25.44 
" clip-path="url(#p0d64a99309)" style="fill: none; stroke: #d3d3d3; stroke-opacity: 0.2; stroke-width: 0.8; stroke-linecap: square"/>
     </g>
     <g id="line2d_34">
      <g>
       <use xlink:href="#md2916d0cbe" x="190.283354" y="316.54" style="stroke: #000000; stroke-width: 0.6"/>
      </g>
     </g>
    </g>
    <g id="xtick_18">
     <g id="line2d_35">
      <path d="M 218.4785 316.54 
L 218.4785 25.44 
" clip-path="url(#p0d64a99309)" style="fill: none; stroke: #d3d3d3; stroke-opacity: 0.2; stroke-width: 0.8; stroke-linecap: square"/>
     </g>
     <g id="line2d_36">
      <g>
       <use xlink:href="#md2916d0cbe" x="218.4785" y="316.54" style="stroke: #000000; stroke-width: 0.6"/>
      </g>
     </g>
    </g>
    <g id="xtick_19">
     <g id="line2d_37">
      <path d="M 232.576073 316.54 
L 232.576073 25.44 
" clip-path="url(#p0d64a99309)" style="fill: none; stroke: #d3d3d3; stroke-opacity: 0.2; stroke-width: 0.8; stroke-linecap: square"/>
     </g>
     <g id="line2d_38">
      <g>
       <use xlink:href="#md2916d0cbe" x="232.576073" y="316.54" style="stroke: #000000; stroke-width: 0.6"/>
      </g>
     </g>
    </g>
    <g id="xtick_20">
     <g id="line2d_39">
      <path d="M 246.673646 316.54 
L 246.673646 25.44 
" clip-path="url(#p0d64a99309)" style="fill: none; stroke: #d3d3d3; stroke-opacity: 0.2; stroke-width: 0.8; stroke-linecap: square"/>
     </g>
     <g id="line2d_40">
      <g>
       <use xlink:href="#md2916d0cbe" x="246.673646" y="316.54" style="stroke: #000000; stroke-width: 0.6"/>
      </g>
     </g>
    </g>
    <g id="xtick_21">
     <g id="line2d_41">
      <path d="M 260.771219 316.54 
L 260.771219 25.44 
" clip-path="url(#p0d64a99309)" style="fill: none; stroke: #d3d3d3; stroke-opacity: 0.2; stroke-width: 0.8; stroke-linecap: square"/>
     </g>
     <g id="line2d_42">
      <g>
       <use xlink:href="#md2916d0cbe" x="260.771219" y="316.54" style="stroke: #000000; stroke-width: 0.6"/>
      </g>
     </g>
    </g>
    <g id="xtick_22">
     <g id="line2d_43">
      <path d="M 288.966365 316.54 
L 288.966365 25.44 
" clip-path="url(#p0d64a99309)" style="fill: none; stroke: #d3d3d3; stroke-opacity: 0.2; stroke-width: 0.8; stroke-linecap: square"/>
     </g>
     <g id="line2d_44">
      <g>
       <use xlink:href="#md2916d0cbe" x="288.966365" y="316.54" style="stroke: #000000; stroke-width: 0.6"/>
      </g>
     </g>
    </g>
    <g id="xtick_23">
     <g id="line2d_45">
      <path d="M 303.063938 316.54 
L 303.063938 25.44 
" clip-path="url(#p0d64a99309)" style="fill: none; stroke: #d3d3d3; stroke-opacity: 0.2; stroke-width: 0.8; stroke-linecap: square"/>
     </g>
     <g id="line2d_46">
      <g>
       <use xlink:href="#md2916d0cbe" x="303.063938" y="316.54" style="stroke: #000000; stroke-width: 0.6"/>
      </g>
     </g>
    </g>
    <g id="xtick_24">
     <g id="line2d_47">
      <path d="M 317.161511 316.54 
L 317.161511 25.44 
" clip-path="url(#p0d64a99309)" style="fill: none; stroke: #d3d3d3; stroke-opacity: 0.2; stroke-width: 0.8; stroke-linecap: square"/>
     </g>
     <g id="line2d_48">
      <g>
       <use xlink:href="#md2916d0cbe" x="317.161511" y="316.54" style="stroke: #000000; stroke-width: 0.6"/>
      </g>
     </g>
    </g>
    <g id="xtick_25">
     <g id="line2d_49">
      <path d="M 331.259084 316.54 
L 331.259084 25.44 
" clip-path="url(#p0d64a99309)" style="fill: none; stroke: #d3d3d3; stroke-opacity: 0.2; stroke-width: 0.8; stroke-linecap: square"/>
     </g>
     <g id="line2d_50">
      <g>
       <use xlink:href="#md2916d0cbe" x="331.259084" y="316.54" style="stroke: #000000; stroke-width: 0.6"/>
      </g>
     </g>
    </g>
    <g id="xtick_26">
     <g id="line2d_51">
      <path d="M 359.45423 316.54 
L 359.45423 25.44 
" clip-path="url(#p0d64a99309)" style="fill: none; stroke: #d3d3d3; stroke-opacity: 0.2; stroke-width: 0.8; stroke-linecap: square"/>
     </g>
     <g id="line2d_52">
      <g>
       <use xlink:href="#md2916d0cbe" x="359.45423" y="316.54" style="stroke: #000000; stroke-width: 0.6"/>
      </g>
     </g>
    </g>
    <g id="xtick_27">
     <g id="line2d_53">
      <path d="M 373.551803 316.54 
L 373.551803 25.44 
" clip-path="url(#p0d64a99309)" style="fill: none; stroke: #d3d3d3; stroke-opacity: 0.2; stroke-width: 0.8; stroke-linecap: square"/>
     </g>
     <g id="line2d_54">
      <g>
       <use xlink:href="#md2916d0cbe" x="373.551803" y="316.54" style="stroke: #000000; stroke-width: 0.6"/>
      </g>
     </g>
    </g>
    <g id="xtick_28">
     <g id="line2d_55">
      <path d="M 387.649376 316.54 
L 387.649376 25.44 
" clip-path="url(#p0d64a99309)" style="fill: none; stroke: #d3d3d3; stroke-opacity: 0.2; stroke-width: 0.8; stroke-linecap: square"/>
     </g>
     <g id="line2d_56">
      <g>
       <use xlink:href="#md2916d0cbe" x="387.649376" y="316.54" style="stroke: #000000; stroke-width: 0.6"/>
      </g>
     </g>
    </g>
    <g id="xtick_29">
     <g id="line2d_57">
      <path d="M 401.746949 316.54 
L 401.746949 25.44 
" clip-path="url(#p0d64a99309)" style="fill: none; stroke: #d3d3d3; stroke-opacity: 0.2; stroke-width: 0.8; stroke-linecap: square"/>
     </g>
     <g id="line2d_58">
      <g>
       <use xlink:href="#md2916d0cbe" x="401.746949" y="316.54" style="stroke: #000000; stroke-width: 0.6"/>
      </g>
     </g>
    </g>
    <g id="xtick_30">
     <g id="line2d_59">
      <path d="M 429.942095 316.54 
L 429.942095 25.44 
" clip-path="url(#p0d64a99309)" style="fill: none; stroke: #d3d3d3; stroke-opacity: 0.2; stroke-width: 0.8; stroke-linecap: square"/>
     </g>
     <g id="line2d_60">
      <g>
       <use xlink:href="#md2916d0cbe" x="429.942095" y="316.54" style="stroke: #000000; stroke-width: 0.6"/>
      </g>
     </g>
    </g>
    <g id="xtick_31">
     <g id="line2d_61">
      <path d="M 444.039668 316.54 
L 444.039668 25.44 
" clip-path="url(#p0d64a99309)" style="fill: none; stroke: #d3d3d3; stroke-opacity: 0.2; stroke-width: 0.8; stroke-linecap: square"/>
     </g>
     <g id="line2d_62">
      <g>
       <use xlink:href="#md2916d0cbe" x="444.039668" y="316.54" style="stroke: #000000; stroke-width: 0.6"/>
      </g>
     </g>
    </g>
    <g id="xtick_32">
     <g id="line2d_63">
      <path d="M 458.137241 316.54 
L 458.137241 25.44 
" clip-path="url(#p0d64a99309)" style="fill: none; stroke: #d3d3d3; stroke-opacity: 0.2; stroke-width: 0.8; stroke-linecap: square"/>
     </g>
     <g id="line2d_64">
      <g>
       <use xlink:href="#md2916d0cbe" x="458.137241" y="316.54" style="stroke: #000000; stroke-width: 0.6"/>
      </g>
     </g>
    </g>
    <g id="xtick_33">
     <g id="line2d_65">
      <path d="M 472.234814 316.54 
L 472.234814 25.44 
" clip-path="url(#p0d64a99309)" style="fill: none; stroke: #d3d3d3; stroke-opacity: 0.2; stroke-width: 0.8; stroke-linecap: square"/>
     </g>
     <g id="line2d_66">
      <g>
       <use xlink:href="#md2916d0cbe" x="472.234814" y="316.54" style="stroke: #000000; stroke-width: 0.6"/>
      </g>
     </g>
    </g>
    <g id="xtick_34">
     <g id="line2d_67">
      <path d="M 500.42996 316.54 
L 500.42996 25.44 
" clip-path="url(#p0d64a99309)" style="fill: none; stroke: #d3d3d3; stroke-opacity: 0.2; stroke-width: 0.8; stroke-linecap: square"/>
     </g>
     <g id="line2d_68">
      <g>
       <use xlink:href="#md2916d0cbe" x="500.42996" y="316.54" style="stroke: #000000; stroke-width: 0.6"/>
      </g>
     </g>
    </g>
    <g id="xtick_35">
     <g id="line2d_69">
      <path d="M 514.527533 316.54 
L 514.527533 25.44 
" clip-path="url(#p0d64a99309)" style="fill: none; stroke: #d3d3d3; stroke-opacity: 0.2; stroke-width: 0.8; stroke-linecap: square"/>
     </g>
     <g id="line2d_70">
      <g>
       <use xlink:href="#md2916d0cbe" x="514.527533" y="316.54" style="stroke: #000000; stroke-width: 0.6"/>
      </g>
     </g>
    </g>
    <g id="xtick_36">
     <g id="line2d_71">
      <path d="M 528.625106 316.54 
L 528.625106 25.44 
" clip-path="url(#p0d64a99309)" style="fill: none; stroke: #d3d3d3; stroke-opacity: 0.2; stroke-width: 0.8; stroke-linecap: square"/>
     </g>
     <g id="line2d_72">
      <g>
       <use xlink:href="#md2916d0cbe" x="528.625106" y="316.54" style="stroke: #000000; stroke-width: 0.6"/>
      </g>
     </g>
    </g>
    <g id="xtick_37">
     <g id="line2d_73">
      <path d="M 542.722679 316.54 
L 542.722679 25.44 
" clip-path="url(#p0d64a99309)" style="fill: none; stroke: #d3d3d3; stroke-opacity: 0.2; stroke-width: 0.8; stroke-linecap: square"/>
     </g>
     <g id="line2d_74">
      <g>
       <use xlink:href="#md2916d0cbe" x="542.722679" y="316.54" style="stroke: #000000; stroke-width: 0.6"/>
      </g>
     </g>
    </g>
    <g id="text_9">
     <!-- Deformación [mm/mm] -->
     <g transform="translate(241.089496 346.316563)scale(0.1 -0.1)">
      <defs>
       <path id="DejaVuSans-44" d="M 1259 4147 
L 1259 519 
L 2022 519 
Q 2988 519 3436 956 
Q 3884 1394 3884 2338 
Q 3884 3275 3436 3711 
Q 2988 4147 2022 4147 
L 1259 4147 
z
M 628 4666 
L 1925 4666 
Q 3281 4666 3915 4102 
Q 4550 3538 4550 2338 
Q 4550 1131 3912 565 
Q 3275 0 1925 0 
L 628 0 
L 628 4666 
z
" transform="scale(0.015625)"/>
       <path id="DejaVuSans-65" d="M 3597 1894 
L 3597 1613 
L 953 1613 
Q 991 1019 1311 708 
Q 1631 397 2203 397 
Q 2534 397 2845 478 
Q 3156 559 3463 722 
L 3463 178 
Q 3153 47 2828 -22 
Q 2503 -91 2169 -91 
Q 1331 -91 842 396 
Q 353 884 353 1716 
Q 353 2575 817 3079 
Q 1281 3584 2069 3584 
Q 2775 3584 3186 3129 
Q 3597 2675 3597 1894 
z
M 3022 2063 
Q 3016 2534 2758 2815 
Q 2500 3097 2075 3097 
Q 1594 3097 1305 2825 
Q 1016 2553 972 2059 
L 3022 2063 
z
" transform="scale(0.015625)"/>
       <path id="DejaVuSans-66" d="M 2375 4863 
L 2375 4384 
L 1825 4384 
Q 1516 4384 1395 4259 
Q 1275 4134 1275 3809 
L 1275 3500 
L 2222 3500 
L 2222 3053 
L 1275 3053 
L 1275 0 
L 697 0 
L 697 3053 
L 147 3053 
L 147 3500 
L 697 3500 
L 697 3744 
Q 697 4328 969 4595 
Q 1241 4863 1831 4863 
L 2375 4863 
z
" transform="scale(0.015625)"/>
       <path id="DejaVuSans-6f" d="M 1959 3097 
Q 1497 3097 1228 2736 
Q 959 2375 959 1747 
Q 959 1119 1226 758 
Q 1494 397 1959 397 
Q 2419 397 2687 759 
Q 2956 1122 2956 1747 
Q 2956 2369 2687 2733 
Q 2419 3097 1959 3097 
z
M 1959 3584 
Q 2709 3584 3137 3096 
Q 3566 2609 3566 1747 
Q 3566 888 3137 398 
Q 2709 -91 1959 -91 
Q 1206 -91 779 398 
Q 353 888 353 1747 
Q 353 2609 779 3096 
Q 1206 3584 1959 3584 
z
" transform="scale(0.015625)"/>
       <path id="DejaVuSans-72" d="M 2631 2963 
Q 2534 3019 2420 3045 
Q 2306 3072 2169 3072 
Q 1681 3072 1420 2755 
Q 1159 2438 1159 1844 
L 1159 0 
L 581 0 
L 581 3500 
L 1159 3500 
L 1159 2956 
Q 1341 3275 1631 3429 
Q 1922 3584 2338 3584 
Q 2397 3584 2469 3576 
Q 2541 3569 2628 3553 
L 2631 2963 
z
" transform="scale(0.015625)"/>
       <path id="DejaVuSans-6d" d="M 3328 2828 
Q 3544 3216 3844 3400 
Q 4144 3584 4550 3584 
Q 5097 3584 5394 3201 
Q 5691 2819 5691 2113 
L 5691 0 
L 5113 0 
L 5113 2094 
Q 5113 2597 4934 2840 
Q 4756 3084 4391 3084 
Q 3944 3084 3684 2787 
Q 3425 2491 3425 1978 
L 3425 0 
L 2847 0 
L 2847 2094 
Q 2847 2600 2669 2842 
Q 2491 3084 2119 3084 
Q 1678 3084 1418 2786 
Q 1159 2488 1159 1978 
L 1159 0 
L 581 0 
L 581 3500 
L 1159 3500 
L 1159 2956 
Q 1356 3278 1631 3431 
Q 1906 3584 2284 3584 
Q 2666 3584 2933 3390 
Q 3200 3197 3328 2828 
z
" transform="scale(0.015625)"/>
       <path id="DejaVuSans-61" d="M 2194 1759 
Q 1497 1759 1228 1600 
Q 959 1441 959 1056 
Q 959 750 1161 570 
Q 1363 391 1709 391 
Q 2188 391 2477 730 
Q 2766 1069 2766 1631 
L 2766 1759 
L 2194 1759 
z
M 3341 1997 
L 3341 0 
L 2766 0 
L 2766 531 
Q 2569 213 2275 61 
Q 1981 -91 1556 -91 
Q 1019 -91 701 211 
Q 384 513 384 1019 
Q 384 1609 779 1909 
Q 1175 2209 1959 2209 
L 2766 2209 
L 2766 2266 
Q 2766 2663 2505 2880 
Q 2244 3097 1772 3097 
Q 1472 3097 1187 3025 
Q 903 2953 641 2809 
L 641 3341 
Q 956 3463 1253 3523 
Q 1550 3584 1831 3584 
Q 2591 3584 2966 3190 
Q 3341 2797 3341 1997 
z
" transform="scale(0.015625)"/>
       <path id="DejaVuSans-63" d="M 3122 3366 
L 3122 2828 
Q 2878 2963 2633 3030 
Q 2388 3097 2138 3097 
Q 1578 3097 1268 2742 
Q 959 2388 959 1747 
Q 959 1106 1268 751 
Q 1578 397 2138 397 
Q 2388 397 2633 464 
Q 2878 531 3122 666 
L 3122 134 
Q 2881 22 2623 -34 
Q 2366 -91 2075 -91 
Q 1284 -91 818 406 
Q 353 903 353 1747 
Q 353 2603 823 3093 
Q 1294 3584 2113 3584 
Q 2378 3584 2631 3529 
Q 2884 3475 3122 3366 
z
" transform="scale(0.015625)"/>
       <path id="DejaVuSans-69" d="M 603 3500 
L 1178 3500 
L 1178 0 
L 603 0 
L 603 3500 
z
M 603 4863 
L 1178 4863 
L 1178 4134 
L 603 4134 
L 603 4863 
z
" transform="scale(0.015625)"/>
       <path id="DejaVuSans-f3" d="M 1959 3097 
Q 1497 3097 1228 2736 
Q 959 2375 959 1747 
Q 959 1119 1226 758 
Q 1494 397 1959 397 
Q 2419 397 2687 759 
Q 2956 1122 2956 1747 
Q 2956 2369 2687 2733 
Q 2419 3097 1959 3097 
z
M 1959 3584 
Q 2709 3584 3137 3096 
Q 3566 2609 3566 1747 
Q 3566 888 3137 398 
Q 2709 -91 1959 -91 
Q 1206 -91 779 398 
Q 353 888 353 1747 
Q 353 2609 779 3096 
Q 1206 3584 1959 3584 
z
M 2394 5119 
L 3016 5119 
L 1997 3944 
L 1519 3944 
L 2394 5119 
z
" transform="scale(0.015625)"/>
       <path id="DejaVuSans-6e" d="M 3513 2113 
L 3513 0 
L 2938 0 
L 2938 2094 
Q 2938 2591 2744 2837 
Q 2550 3084 2163 3084 
Q 1697 3084 1428 2787 
Q 1159 2491 1159 1978 
L 1159 0 
L 581 0 
L 581 3500 
L 1159 3500 
L 1159 2956 
Q 1366 3272 1645 3428 
Q 1925 3584 2291 3584 
Q 2894 3584 3203 3211 
Q 3513 2838 3513 2113 
z
" transform="scale(0.015625)"/>
       <path id="DejaVuSans-20" transform="scale(0.015625)"/>
       <path id="DejaVuSans-5b" d="M 550 4863 
L 1875 4863 
L 1875 4416 
L 1125 4416 
L 1125 -397 
L 1875 -397 
L 1875 -844 
L 550 -844 
L 550 4863 
z
" transform="scale(0.015625)"/>
       <path id="DejaVuSans-2f" d="M 1625 4666 
L 2156 4666 
L 531 -594 
L 0 -594 
L 1625 4666 
z
" transform="scale(0.015625)"/>
       <path id="DejaVuSans-5d" d="M 1947 4863 
L 1947 -844 
L 622 -844 
L 622 -397 
L 1369 -397 
L 1369 4416 
L 622 4416 
L 622 4863 
L 1947 4863 
z
" transform="scale(0.015625)"/>
      </defs>
      <use xlink:href="#DejaVuSans-44"/>
      <use xlink:href="#DejaVuSans-65" x="77.001953"/>
      <use xlink:href="#DejaVuSans-66" x="138.525391"/>
      <use xlink:href="#DejaVuSans-6f" x="173.730469"/>
      <use xlink:href="#DejaVuSans-72" x="234.912109"/>
      <use xlink:href="#DejaVuSans-6d" x="274.275391"/>
      <use xlink:href="#DejaVuSans-61" x="371.6875"/>
      <use xlink:href="#DejaVuSans-63" x="432.966797"/>
      <use xlink:href="#DejaVuSans-69" x="487.947266"/>
      <use xlink:href="#DejaVuSans-f3" x="515.730469"/>
      <use xlink:href="#DejaVuSans-6e" x="576.912109"/>
      <use xlink:href="#DejaVuSans-20" x="640.291016"/>
      <use xlink:href="#DejaVuSans-5b" x="672.078125"/>
      <use xlink:href="#DejaVuSans-6d" x="711.091797"/>
      <use xlink:href="#DejaVuSans-6d" x="808.503906"/>
      <use xlink:href="#DejaVuSans-2f" x="905.916016"/>
      <use xlink:href="#DejaVuSans-6d" x="939.607422"/>
      <use xlink:href="#DejaVuSans-6d" x="1037.019531"/>
      <use xlink:href="#DejaVuSans-5d" x="1134.431641"/>
     </g>
    </g>
   </g>
   <g id="matplotlib.axis_2">
    <g id="ytick_1">
     <g id="line2d_75">
      <path d="M 39.77 303.477172 
L 559.75118 303.477172 
" clip-path="url(#p0d64a99309)" style="fill: none; stroke: #808080; stroke-opacity: 0.3; stroke-width: 0.8; stroke-linecap: square"/>
     </g>
     <g id="line2d_76">
      <defs>
       <path id="m7e6f18951a" d="M 0 0 
L -5 0 
" style="stroke: #000000; stroke-width: 0.75"/>
      </defs>
      <g>
       <use xlink:href="#m7e6f18951a" x="39.77" y="303.477172" style="stroke: #000000; stroke-width: 0.75"/>
      </g>
     </g>
     <g id="text_10">
      <!-- 0 -->
      <g transform="translate(24.9075 307.276391)scale(0.1 -0.1)">
       <use xlink:href="#DejaVuSans-30"/>
      </g>
     </g>
    </g>
    <g id="ytick_2">
     <g id="line2d_77">
      <path d="M 39.77 245.410607 
L 559.75118 245.410607 
" clip-path="url(#p0d64a99309)" style="fill: none; stroke: #808080; stroke-opacity: 0.3; stroke-width: 0.8; stroke-linecap: square"/>
     </g>
     <g id="line2d_78">
      <g>
       <use xlink:href="#m7e6f18951a" x="39.77" y="245.410607" style="stroke: #000000; stroke-width: 0.75"/>
      </g>
     </g>
     <g id="text_11">
      <!-- 2 -->
      <g transform="translate(24.9075 249.209826)scale(0.1 -0.1)">
       <use xlink:href="#DejaVuSans-32"/>
      </g>
     </g>
    </g>
    <g id="ytick_3">
     <g id="line2d_79">
      <path d="M 39.77 187.344042 
L 559.75118 187.344042 
" clip-path="url(#p0d64a99309)" style="fill: none; stroke: #808080; stroke-opacity: 0.3; stroke-width: 0.8; stroke-linecap: square"/>
     </g>
     <g id="line2d_80">
      <g>
       <use xlink:href="#m7e6f18951a" x="39.77" y="187.344042" style="stroke: #000000; stroke-width: 0.75"/>
      </g>
     </g>
     <g id="text_12">
      <!-- 4 -->
      <g transform="translate(24.9075 191.14326)scale(0.1 -0.1)">
       <defs>
        <path id="DejaVuSans-34" d="M 2419 4116 
L 825 1625 
L 2419 1625 
L 2419 4116 
z
M 2253 4666 
L 3047 4666 
L 3047 1625 
L 3713 1625 
L 3713 1100 
L 3047 1100 
L 3047 0 
L 2419 0 
L 2419 1100 
L 313 1100 
L 313 1709 
L 2253 4666 
z
" transform="scale(0.015625)"/>
       </defs>
       <use xlink:href="#DejaVuSans-34"/>
      </g>
     </g>
    </g>
    <g id="ytick_4">
     <g id="line2d_81">
      <path d="M 39.77 129.277476 
L 559.75118 129.277476 
" clip-path="url(#p0d64a99309)" style="fill: none; stroke: #808080; stroke-opacity: 0.3; stroke-width: 0.8; stroke-linecap: square"/>
     </g>
     <g id="line2d_82">
      <g>
       <use xlink:href="#m7e6f18951a" x="39.77" y="129.277476" style="stroke: #000000; stroke-width: 0.75"/>
      </g>
     </g>
     <g id="text_13">
      <!-- 6 -->
      <g transform="translate(24.9075 133.076695)scale(0.1 -0.1)">
       <defs>
        <path id="DejaVuSans-36" d="M 2113 2584 
Q 1688 2584 1439 2293 
Q 1191 2003 1191 1497 
Q 1191 994 1439 701 
Q 1688 409 2113 409 
Q 2538 409 2786 701 
Q 3034 994 3034 1497 
Q 3034 2003 2786 2293 
Q 2538 2584 2113 2584 
z
M 3366 4563 
L 3366 3988 
Q 3128 4100 2886 4159 
Q 2644 4219 2406 4219 
Q 1781 4219 1451 3797 
Q 1122 3375 1075 2522 
Q 1259 2794 1537 2939 
Q 1816 3084 2150 3084 
Q 2853 3084 3261 2657 
Q 3669 2231 3669 1497 
Q 3669 778 3244 343 
Q 2819 -91 2113 -91 
Q 1303 -91 875 529 
Q 447 1150 447 2328 
Q 447 3434 972 4092 
Q 1497 4750 2381 4750 
Q 2619 4750 2861 4703 
Q 3103 4656 3366 4563 
z
" transform="scale(0.015625)"/>
       </defs>
       <use xlink:href="#DejaVuSans-36"/>
      </g>
     </g>
    </g>
    <g id="ytick_5">
     <g id="line2d_83">
      <path d="M 39.77 71.210911 
L 559.75118 71.210911 
" clip-path="url(#p0d64a99309)" style="fill: none; stroke: #808080; stroke-opacity: 0.3; stroke-width: 0.8; stroke-linecap: square"/>
     </g>
     <g id="line2d_84">
      <g>
       <use xlink:href="#m7e6f18951a" x="39.77" y="71.210911" style="stroke: #000000; stroke-width: 0.75"/>
      </g>
     </g>
     <g id="text_14">
      <!-- 8 -->
      <g transform="translate(24.9075 75.01013)scale(0.1 -0.1)">
       <defs>
        <path id="DejaVuSans-38" d="M 2034 2216 
Q 1584 2216 1326 1975 
Q 1069 1734 1069 1313 
Q 1069 891 1326 650 
Q 1584 409 2034 409 
Q 2484 409 2743 651 
Q 3003 894 3003 1313 
Q 3003 1734 2745 1975 
Q 2488 2216 2034 2216 
z
M 1403 2484 
Q 997 2584 770 2862 
Q 544 3141 544 3541 
Q 544 4100 942 4425 
Q 1341 4750 2034 4750 
Q 2731 4750 3128 4425 
Q 3525 4100 3525 3541 
Q 3525 3141 3298 2862 
Q 3072 2584 2669 2484 
Q 3125 2378 3379 2068 
Q 3634 1759 3634 1313 
Q 3634 634 3220 271 
Q 2806 -91 2034 -91 
Q 1263 -91 848 271 
Q 434 634 434 1313 
Q 434 1759 690 2068 
Q 947 2378 1403 2484 
z
M 1172 3481 
Q 1172 3119 1398 2916 
Q 1625 2713 2034 2713 
Q 2441 2713 2670 2916 
Q 2900 3119 2900 3481 
Q 2900 3844 2670 4047 
Q 2441 4250 2034 4250 
Q 1625 4250 1398 4047 
Q 1172 3844 1172 3481 
z
" transform="scale(0.015625)"/>
       </defs>
       <use xlink:href="#DejaVuSans-38"/>
      </g>
     </g>
    </g>
    <g id="ytick_6">
     <g id="line2d_85">
      <path d="M 39.77 288.960531 
L 559.75118 288.960531 
" clip-path="url(#p0d64a99309)" style="fill: none; stroke: #d3d3d3; stroke-opacity: 0.2; stroke-width: 0.8; stroke-linecap: square"/>
     </g>
     <g id="line2d_86">
      <defs>
       <path id="m49c6caaa65" d="M 0 0 
L -2 0 
" style="stroke: #000000; stroke-width: 0.6"/>
      </defs>
      <g>
       <use xlink:href="#m49c6caaa65" x="39.77" y="288.960531" style="stroke: #000000; stroke-width: 0.6"/>
      </g>
     </g>
    </g>
    <g id="ytick_7">
     <g id="line2d_87">
      <path d="M 39.77 274.443889 
L 559.75118 274.443889 
" clip-path="url(#p0d64a99309)" style="fill: none; stroke: #d3d3d3; stroke-opacity: 0.2; stroke-width: 0.8; stroke-linecap: square"/>
     </g>
     <g id="line2d_88">
      <g>
       <use xlink:href="#m49c6caaa65" x="39.77" y="274.443889" style="stroke: #000000; stroke-width: 0.6"/>
      </g>
     </g>
    </g>
    <g id="ytick_8">
     <g id="line2d_89">
      <path d="M 39.77 259.927248 
L 559.75118 259.927248 
" clip-path="url(#p0d64a99309)" style="fill: none; stroke: #d3d3d3; stroke-opacity: 0.2; stroke-width: 0.8; stroke-linecap: square"/>
     </g>
     <g id="line2d_90">
      <g>
       <use xlink:href="#m49c6caaa65" x="39.77" y="259.927248" style="stroke: #000000; stroke-width: 0.6"/>
      </g>
     </g>
    </g>
    <g id="ytick_9">
     <g id="line2d_91">
      <path d="M 39.77 230.893965 
L 559.75118 230.893965 
" clip-path="url(#p0d64a99309)" style="fill: none; stroke: #d3d3d3; stroke-opacity: 0.2; stroke-width: 0.8; stroke-linecap: square"/>
     </g>
     <g id="line2d_92">
      <g>
       <use xlink:href="#m49c6caaa65" x="39.77" y="230.893965" style="stroke: #000000; stroke-width: 0.6"/>
      </g>
     </g>
    </g>
    <g id="ytick_10">
     <g id="line2d_93">
      <path d="M 39.77 216.377324 
L 559.75118 216.377324 
" clip-path="url(#p0d64a99309)" style="fill: none; stroke: #d3d3d3; stroke-opacity: 0.2; stroke-width: 0.8; stroke-linecap: square"/>
     </g>
     <g id="line2d_94">
      <g>
       <use xlink:href="#m49c6caaa65" x="39.77" y="216.377324" style="stroke: #000000; stroke-width: 0.6"/>
      </g>
     </g>
    </g>
    <g id="ytick_11">
     <g id="line2d_95">
      <path d="M 39.77 201.860683 
L 559.75118 201.860683 
" clip-path="url(#p0d64a99309)" style="fill: none; stroke: #d3d3d3; stroke-opacity: 0.2; stroke-width: 0.8; stroke-linecap: square"/>
     </g>
     <g id="line2d_96">
      <g>
       <use xlink:href="#m49c6caaa65" x="39.77" y="201.860683" style="stroke: #000000; stroke-width: 0.6"/>
      </g>
     </g>
    </g>
    <g id="ytick_12">
     <g id="line2d_97">
      <path d="M 39.77 172.8274 
L 559.75118 172.8274 
" clip-path="url(#p0d64a99309)" style="fill: none; stroke: #d3d3d3; stroke-opacity: 0.2; stroke-width: 0.8; stroke-linecap: square"/>
     </g>
     <g id="line2d_98">
      <g>
       <use xlink:href="#m49c6caaa65" x="39.77" y="172.8274" style="stroke: #000000; stroke-width: 0.6"/>
      </g>
     </g>
    </g>
    <g id="ytick_13">
     <g id="line2d_99">
      <path d="M 39.77 158.310759 
L 559.75118 158.310759 
" clip-path="url(#p0d64a99309)" style="fill: none; stroke: #d3d3d3; stroke-opacity: 0.2; stroke-width: 0.8; stroke-linecap: square"/>
     </g>
     <g id="line2d_100">
      <g>
       <use xlink:href="#m49c6caaa65" x="39.77" y="158.310759" style="stroke: #000000; stroke-width: 0.6"/>
      </g>
     </g>
    </g>
    <g id="ytick_14">
     <g id="line2d_101">
      <path d="M 39.77 143.794118 
L 559.75118 143.794118 
" clip-path="url(#p0d64a99309)" style="fill: none; stroke: #d3d3d3; stroke-opacity: 0.2; stroke-width: 0.8; stroke-linecap: square"/>
     </g>
     <g id="line2d_102">
      <g>
       <use xlink:href="#m49c6caaa65" x="39.77" y="143.794118" style="stroke: #000000; stroke-width: 0.6"/>
      </g>
     </g>
    </g>
    <g id="ytick_15">
     <g id="line2d_103">
      <path d="M 39.77 114.760835 
L 559.75118 114.760835 
" clip-path="url(#p0d64a99309)" style="fill: none; stroke: #d3d3d3; stroke-opacity: 0.2; stroke-width: 0.8; stroke-linecap: square"/>
     </g>
     <g id="line2d_104">
      <g>
       <use xlink:href="#m49c6caaa65" x="39.77" y="114.760835" style="stroke: #000000; stroke-width: 0.6"/>
      </g>
     </g>
    </g>
    <g id="ytick_16">
     <g id="line2d_105">
      <path d="M 39.77 100.244194 
L 559.75118 100.244194 
" clip-path="url(#p0d64a99309)" style="fill: none; stroke: #d3d3d3; stroke-opacity: 0.2; stroke-width: 0.8; stroke-linecap: square"/>
     </g>
     <g id="line2d_106">
      <g>
       <use xlink:href="#m49c6caaa65" x="39.77" y="100.244194" style="stroke: #000000; stroke-width: 0.6"/>
      </g>
     </g>
    </g>
    <g id="ytick_17">
     <g id="line2d_107">
      <path d="M 39.77 85.727552 
L 559.75118 85.727552 
" clip-path="url(#p0d64a99309)" style="fill: none; stroke: #d3d3d3; stroke-opacity: 0.2; stroke-width: 0.8; stroke-linecap: square"/>
     </g>
     <g id="line2d_108">
      <g>
       <use xlink:href="#m49c6caaa65" x="39.77" y="85.727552" style="stroke: #000000; stroke-width: 0.6"/>
      </g>
     </g>
    </g>
    <g id="ytick_18">
     <g id="line2d_109">
      <path d="M 39.77 56.69427 
L 559.75118 56.69427 
" clip-path="url(#p0d64a99309)" style="fill: none; stroke: #d3d3d3; stroke-opacity: 0.2; stroke-width: 0.8; stroke-linecap: square"/>
     </g>
     <g id="line2d_110">
      <g>
       <use xlink:href="#m49c6caaa65" x="39.77" y="56.69427" style="stroke: #000000; stroke-width: 0.6"/>
      </g>
     </g>
    </g>
    <g id="ytick_19">
     <g id="line2d_111">
      <path d="M 39.77 42.177629 
L 559.75118 42.177629 
" clip-path="url(#p0d64a99309)" style="fill: none; stroke: #d3d3d3; stroke-opacity: 0.2; stroke-width: 0.8; stroke-linecap: square"/>
     </g>
     <g id="line2d_112">
      <g>
       <use xlink:href="#m49c6caaa65" x="39.77" y="42.177629" style="stroke: #000000; stroke-width: 0.6"/>
      </g>
     </g>
    </g>
    <g id="ytick_20">
     <g id="line2d_113">
      <path d="M 39.77 27.660987 
L 559.75118 27.660987 
" clip-path="url(#p0d64a99309)" style="fill: none; stroke: #d3d3d3; stroke-opacity: 0.2; stroke-width: 0.8; stroke-linecap: square"/>
     </g>
     <g id="line2d_114">
      <g>
       <use xlink:href="#m49c6caaa65" x="39.77" y="27.660987" style="stroke: #000000; stroke-width: 0.6"/>
      </g>
     </g>
    </g>
    <g id="text_15">
     <!-- Esfuerzo [MPa] -->
     <g transform="translate(18.827813 208.157188)rotate(-90)scale(0.1 -0.1)">
      <defs>
       <path id="DejaVuSans-45" d="M 628 4666 
L 3578 4666 
L 3578 4134 
L 1259 4134 
L 1259 2753 
L 3481 2753 
L 3481 2222 
L 1259 2222 
L 1259 531 
L 3634 531 
L 3634 0 
L 628 0 
L 628 4666 
z
" transform="scale(0.015625)"/>
       <path id="DejaVuSans-73" d="M 2834 3397 
L 2834 2853 
Q 2591 2978 2328 3040 
Q 2066 3103 1784 3103 
Q 1356 3103 1142 2972 
Q 928 2841 928 2578 
Q 928 2378 1081 2264 
Q 1234 2150 1697 2047 
L 1894 2003 
Q 2506 1872 2764 1633 
Q 3022 1394 3022 966 
Q 3022 478 2636 193 
Q 2250 -91 1575 -91 
Q 1294 -91 989 -36 
Q 684 19 347 128 
L 347 722 
Q 666 556 975 473 
Q 1284 391 1588 391 
Q 1994 391 2212 530 
Q 2431 669 2431 922 
Q 2431 1156 2273 1281 
Q 2116 1406 1581 1522 
L 1381 1569 
Q 847 1681 609 1914 
Q 372 2147 372 2553 
Q 372 3047 722 3315 
Q 1072 3584 1716 3584 
Q 2034 3584 2315 3537 
Q 2597 3491 2834 3397 
z
" transform="scale(0.015625)"/>
       <path id="DejaVuSans-75" d="M 544 1381 
L 544 3500 
L 1119 3500 
L 1119 1403 
Q 1119 906 1312 657 
Q 1506 409 1894 409 
Q 2359 409 2629 706 
Q 2900 1003 2900 1516 
L 2900 3500 
L 3475 3500 
L 3475 0 
L 2900 0 
L 2900 538 
Q 2691 219 2414 64 
Q 2138 -91 1772 -91 
Q 1169 -91 856 284 
Q 544 659 544 1381 
z
M 1991 3584 
L 1991 3584 
z
" transform="scale(0.015625)"/>
       <path id="DejaVuSans-7a" d="M 353 3500 
L 3084 3500 
L 3084 2975 
L 922 459 
L 3084 459 
L 3084 0 
L 275 0 
L 275 525 
L 2438 3041 
L 353 3041 
L 353 3500 
z
" transform="scale(0.015625)"/>
       <path id="DejaVuSans-4d" d="M 628 4666 
L 1569 4666 
L 2759 1491 
L 3956 4666 
L 4897 4666 
L 4897 0 
L 4281 0 
L 4281 4097 
L 3078 897 
L 2444 897 
L 1241 4097 
L 1241 0 
L 628 0 
L 628 4666 
z
" transform="scale(0.015625)"/>
       <path id="DejaVuSans-50" d="M 1259 4147 
L 1259 2394 
L 2053 2394 
Q 2494 2394 2734 2622 
Q 2975 2850 2975 3272 
Q 2975 3691 2734 3919 
Q 2494 4147 2053 4147 
L 1259 4147 
z
M 628 4666 
L 2053 4666 
Q 2838 4666 3239 4311 
Q 3641 3956 3641 3272 
Q 3641 2581 3239 2228 
Q 2838 1875 2053 1875 
L 1259 1875 
L 1259 0 
L 628 0 
L 628 4666 
z
" transform="scale(0.015625)"/>
      </defs>
      <use xlink:href="#DejaVuSans-45"/>
      <use xlink:href="#DejaVuSans-73" x="63.183594"/>
      <use xlink:href="#DejaVuSans-66" x="115.283203"/>
      <use xlink:href="#DejaVuSans-75" x="150.488281"/>
      <use xlink:href="#DejaVuSans-65" x="213.867188"/>
      <use xlink:href="#DejaVuSans-72" x="275.390625"/>
      <use xlink:href="#DejaVuSans-7a" x="316.503906"/>
      <use xlink:href="#DejaVuSans-6f" x="368.994141"/>
      <use xlink:href="#DejaVuSans-20" x="430.175781"/>
      <use xlink:href="#DejaVuSans-5b" x="461.962891"/>
      <use xlink:href="#DejaVuSans-4d" x="500.976562"/>
      <use xlink:href="#DejaVuSans-50" x="587.255859"/>
      <use xlink:href="#DejaVuSans-61" x="643.058594"/>
      <use xlink:href="#DejaVuSans-5d" x="704.337891"/>
     </g>
    </g>
   </g>
   <g id="line2d_115">
    <path d="M 63.405508 303.308182 
L 63.871893 216.098767 
L 64.396052 155.952668 
L 64.96724 115.824448 
L 65.577408 88.744752 
L 66.222103 69.841806 
L 66.8992 56.813687 
L 67.609578 48.151827 
L 67.992138 45.722091 
L 68.601625 43.182682 
L 69.31033 41.045658 
L 69.782612 40.021953 
L 70.491034 39.122029 
L 70.963599 38.799426 
L 71.672872 38.671818 
L 72.145153 39.624058 
L 72.381577 39.622722 
L 72.617434 39.504016 
L 73.562281 40.482313 
L 73.798705 41.065997 
L 74.034846 41.142777 
L 74.743551 42.210774 
L 76.869668 46.645177 
L 79.468067 53.402147 
L 81.594751 59.927275 
L 82.775454 64.182007 
L 83.956725 69.040436 
L 85.610561 77.198787 
L 87.263829 86.70322 
L 88.68124 95.662615 
L 90.334792 107.353757 
L 92.224769 122.793199 
L 93.642464 134.080282 
L 94.58731 139.676659 
L 95.295732 142.765949 
L 96.241145 145.577498 
L 96.713427 146.526197 
L 97.658557 148.005859 
L 98.603403 148.955428 
L 99.547966 149.581857 
L 101.910224 150.350526 
L 107.107843 150.519669 
L 108.052718 150.233061 
L 108.997847 150.071736 
L 109.706241 150.0196 
L 110.414975 150.026202 
L 112.541659 149.58274 
L 113.958504 149.485375 
L 116.557185 149.201265 
L 118.446878 149.100665 
L 119.86429 148.935621 
L 121.045844 148.977707 
L 125.061653 149.122021 
L 127.660052 148.934359 
L 128.841322 148.690077 
L 129.78614 148.449501 
L 130.731299 148.253436 
L 132.148682 147.994481 
L 133.093245 147.884794 
L 133.802546 147.902736 
L 135.219673 147.954972 
L 135.928067 147.862044 
L 137.34579 147.795885 
L 138.527344 147.727495 
L 140.180897 147.714788 
L 142.77955 147.58172 
L 143.960254 147.547684 
L 145.377949 147.418475 
L 147.031217 147.387223 
L 150.575029 147.664272 
L 152.464722 147.500197 
L 154.118557 147.525552 
L 155.299856 147.769834 
L 157.89851 147.87131 
L 161.914348 147.671313 
L 162.623025 147.714217 
L 164.276889 147.754749 
L 165.221707 147.723549 
L 168.529095 147.36964 
L 169.237829 147.213849 
L 169.945939 147.145033 
L 174.434626 147.140669 
L 175.616151 147.227877 
L 176.32429 147.258851 
L 176.797138 147.337292 
L 178.686831 147.530447 
L 179.632244 147.676222 
L 181.285797 147.794776 
L 181.994531 147.843585 
L 182.703208 147.879301 
L 183.175489 147.941242 
L 186.246765 148.430882 
L 189.554124 149.109573 
L 190.498998 149.235035 
L 191.207421 149.394241 
L 194.751204 149.901603 
L 195.459626 149.932311 
L 197.821884 150.184757 
L 198.294761 150.243961 
L 198.767014 150.298223 
L 199.239579 150.318502 
L 199.712144 150.41323 
L 207.744047 150.947461 
L 208.925317 151.013294 
L 211.050867 151.193696 
L 212.941127 151.375327 
L 213.413409 151.355406 
L 213.886257 151.430001 
L 217.430352 151.382468 
L 220.028212 151.232163 
L 221.209738 151.3389 
L 221.91816 151.397958 
L 224.517409 151.568848 
L 225.225548 151.685383 
L 226.40628 151.681928 
L 227.11524 151.64137 
L 228.296227 151.547525 
L 229.241357 151.439294 
L 230.894909 151.369595 
L 233.257167 151.249772 
L 234.674578 151.170707 
L 235.856132 151.252728 
L 237.03712 151.369063 
L 237.982249 151.337366 
L 241.289354 151.365702 
L 242.470341 151.41107 
L 243.651895 151.425584 
L 245.541588 151.516691 
L 246.722575 151.507551 
L 247.195395 151.506694 
L 252.628389 151.320839 
L 253.33735 151.216785 
L 253.809915 151.171351 
L 254.518337 151.150281 
L 256.408597 151.120636 
L 257.117274 151.175264 
L 258.061865 151.111868 
L 258.534997 151.027921 
L 259.006712 151.042694 
L 259.47956 150.930855 
L 260.188266 150.868403 
L 261.369536 150.922061 
L 263.259201 150.986818 
L 263.967935 151.084275 
L 267.039153 151.353487 
L 267.984028 151.50431 
L 269.164987 151.494672 
L 269.873721 151.422541 
L 276.488779 151.218678 
L 277.905907 151.363842 
L 282.866819 151.210429 
L 284.99268 151.083631 
L 286.882657 151.070207 
L 289.717734 151.157648 
L 291.135174 151.29033 
L 292.316161 151.3296 
L 293.969997 151.32157 
L 295.151267 151.315665 
L 297.277101 151.272422 
L 297.985807 151.29591 
L 299.639614 151.31605 
L 300.584205 151.34082 
L 301.293506 151.346386 
L 301.765759 151.374151 
L 303.419028 151.430127 
L 309.088701 151.818238 
L 312.396344 151.358449 
L 313.341474 151.420608 
L 314.75829 151.69613 
L 315.467024 151.869053 
L 317.121143 151.955198 
L 317.829565 151.91535 
L 318.774695 151.970775 
L 320.192078 152.084181 
L 320.664388 152.139413 
L 321.845658 152.176444 
L 326.80657 152.178105 
L 327.515304 152.237043 
L 328.696007 152.254593 
L 329.168856 152.292348 
L 331.294973 152.500569 
L 332.00365 152.577588 
L 334.602048 152.94793 
L 336.019431 153.14072 
L 339.563527 153.565357 
L 340.980683 153.712713 
L 343.106516 153.952359 
L 347.122893 154.278642 
L 348.067739 154.247901 
L 349.24901 154.081375 
L 353.500961 154.169978 
L 354.9184 154.339081 
L 359.170946 154.795702 
L 359.879311 154.877012 
L 362.005712 154.949096 
L 362.713879 154.854421 
L 364.13129 154.451923 
L 366.257407 153.715297 
L 368.147667 153.264641 
L 368.856373 153.19473 
L 369.801474 153.187802 
L 370.746065 153.170983 
L 373.344464 153.088165 
L 374.526585 153.03484 
L 375.470864 153.072648 
L 377.597236 153.164825 
L 379.723382 153.318956 
L 380.904057 153.365952 
L 381.84947 153.452077 
L 383.266655 153.516908 
L 383.975587 153.582515 
L 384.684038 153.61042 
L 385.86528 153.682769 
L 389.408553 153.805096 
L 392.715941 154.289609 
L 394.369748 154.804118 
L 397.44074 155.017048 
L 403.346469 154.845587 
L 403.819346 154.896402 
L 410.434093 155.019878 
L 410.906147 154.955765 
L 414.449931 154.876906 
L 415.158637 154.946599 
L 416.339652 155.03125 
L 417.757318 155.045989 
L 419.883152 154.974743 
L 428.860157 154.453099 
L 430.040917 154.446277 
L 431.222131 154.382397 
L 437.128824 154.38251 
L 439.018233 154.567495 
L 440.199447 154.577339 
L 441.380746 154.599956 
L 442.798214 154.648645 
L 445.396584 154.774334 
L 447.286504 154.609867 
L 448.23169 154.501795 
L 450.121355 154.419209 
L 455.554831 153.309112 
L 457.444495 153.092582 
L 459.570981 152.848134 
L 461.46039 152.752755 
L 465.712936 152.69035 
L 467.130602 152.667958 
L 467.602856 152.652999 
L 469.256152 152.589723 
L 469.728973 152.578092 
L 470.909903 152.55137 
L 471.855089 152.529071 
L 473.981178 152.692475 
L 474.689884 152.705395 
L 475.162194 152.733652 
L 479.650852 152.18961 
L 480.832094 152.223513 
L 481.5408 152.354289 
L 482.957956 152.474796 
L 483.902547 152.546176 
L 487.446586 152.336461 
L 488.39146 152.337656 
L 489.809184 152.236738 
L 491.698309 152.304378 
L 492.171385 152.257276 
L 492.880147 152.214552 
L 495.714658 151.574201 
L 498.077199 151.23658 
L 498.54948 151.285096 
L 499.730439 151.572448 
L 501.856556 152.081484 
L 503.51042 152.736388 
L 504.455522 153.241632 
L 506.581157 154.625324 
L 507.526258 155.551166 
L 508.471615 156.683794 
L 510.597477 159.509652 
L 512.0152 161.869589 
L 513.432243 164.443865 
L 515.558104 169.104535 
L 516.503263 171.591987 
L 517.448704 175.068558 
L 518.157353 179.040122 
L 519.574198 189.992712 
L 520.519951 195.093869 
L 521.700683 199.958874 
L 524.062884 208.459503 
L 527.36996 221.286289 
L 529.968925 231.554536 
L 532.803238 243.655417 
L 534.221188 251.089363 
L 535.165722 257.027799 
L 535.63806 260.833137 
L 535.874428 263.57791 
L 536.115671 280.74564 
L 536.115671 280.74564 
" clip-path="url(#p0d64a99309)" style="fill: none; stroke: #1f77b4; stroke-width: 1.5; stroke-linecap: square"/>
   </g>
   <g id="patch_3">
    <path d="M 39.77 316.54 
L 39.77 25.44 
" style="fill: none; stroke: #000000; stroke-width: 0.8; stroke-linejoin: miter; stroke-linecap: square"/>
   </g>
   <g id="patch_4">
    <path d="M 559.75118 316.54 
L 559.75118 25.44 
" style="fill: none; stroke: #000000; stroke-width: 0.8; stroke-linejoin: miter; stroke-linecap: square"/>
   </g>
   <g id="patch_5">
    <path d="M 39.77 316.54 
L 559.75118 316.54 
" style="fill: none; stroke: #000000; stroke-width: 0.8; stroke-linejoin: miter; stroke-linecap: square"/>
   </g>
   <g id="patch_6">
    <path d="M 39.77 25.44 
L 559.75118 25.44 
" style="fill: none; stroke: #000000; stroke-width: 0.8; stroke-linejoin: miter; stroke-linecap: square"/>
   </g>
   <g id="text_16">
    <!-- Esfuerzo vs Deformación -->
    <g transform="translate(225.04184 19.44)scale(0.12 -0.12)">
     <defs>
      <path id="DejaVuSans-76" d="M 191 3500 
L 800 3500 
L 1894 563 
L 2988 3500 
L 3597 3500 
L 2284 0 
L 1503 0 
L 191 3500 
z
" transform="scale(0.015625)"/>
     </defs>
     <use xlink:href="#DejaVuSans-45"/>
     <use xlink:href="#DejaVuSans-73" x="63.183594"/>
     <use xlink:href="#DejaVuSans-66" x="115.283203"/>
     <use xlink:href="#DejaVuSans-75" x="150.488281"/>
     <use xlink:href="#DejaVuSans-65" x="213.867188"/>
     <use xlink:href="#DejaVuSans-72" x="275.390625"/>
     <use xlink:href="#DejaVuSans-7a" x="316.503906"/>
     <use xlink:href="#DejaVuSans-6f" x="368.994141"/>
     <use xlink:href="#DejaVuSans-20" x="430.175781"/>
     <use xlink:href="#DejaVuSans-76" x="461.962891"/>
     <use xlink:href="#DejaVuSans-73" x="521.142578"/>
     <use xlink:href="#DejaVuSans-20" x="573.242188"/>
     <use xlink:href="#DejaVuSans-44" x="605.029297"/>
     <use xlink:href="#DejaVuSans-65" x="682.03125"/>
     <use xlink:href="#DejaVuSans-66" x="743.554688"/>
     <use xlink:href="#DejaVuSans-6f" x="778.759766"/>
     <use xlink:href="#DejaVuSans-72" x="839.941406"/>
     <use xlink:href="#DejaVuSans-6d" x="879.304688"/>
     <use xlink:href="#DejaVuSans-61" x="976.716797"/>
     <use xlink:href="#DejaVuSans-63" x="1037.996094"/>
     <use xlink:href="#DejaVuSans-69" x="1092.976562"/>
     <use xlink:href="#DejaVuSans-f3" x="1120.759766"/>
     <use xlink:href="#DejaVuSans-6e" x="1181.941406"/>
    </g>
   </g>
  </g>
 </g>
 <defs>
  <clipPath id="p0d64a99309">
   <rect x="39.77" y="25.44" width="519.98118" height="291.1"/>
  </clipPath>
 </defs>
</svg>
