<?xml version="1.0" encoding="utf-8" standalone="no"?>
<!DOCTYPE svg PUBLIC "-//W3C//DTD SVG 1.1//EN"
  "http://www.w3.org/Graphics/SVG/1.1/DTD/svg11.dtd">
<svg xmlns:xlink="http://www.w3.org/1999/xlink" width="720pt" height="360pt" viewBox="0 0 720 360" xmlns="http://www.w3.org/2000/svg" version="1.1">
 <metadata>
  <rdf:RDF xmlns:dc="http://purl.org/dc/elements/1.1/" xmlns:cc="http://creativecommons.org/ns#" xmlns:rdf="http://www.w3.org/1999/02/22-rdf-syntax-ns#">
   <cc:Work>
    <dc:type rdf:resource="http://purl.org/dc/dcmitype/StillImage"/>
    <dc:date>2023-11-01T13:34:16.178240</dc:date>
    <dc:format>image/svg+xml</dc:format>
    <dc:creator>
     <cc:Agent>
      <dc:title>Matplotlib v3.5.2, https://matplotlib.org/</dc:title>
     </cc:Agent>
    </dc:creator>
   </cc:Work>
  </rdf:RDF>
 </metadata>
 <defs>
  <style type="text/css">*{stroke-linejoin: round; stroke-linecap: butt}</style>
 </defs>
 <g id="figure_1">
  <g id="patch_1">
   <path d="M 0 360 
L 720 360 
L 720 0 
L 0 0 
z
" style="fill: #ffffff"/>
  </g>
  <g id="axes_1">
   <g id="patch_2">
    <path d="M 39.77 316.54 
L 704.380224 316.54 
L 704.380224 25.44 
L 39.77 25.44 
z
" style="fill: #ffffff"/>
   </g>
   <g id="matplotlib.axis_1">
    <g id="xtick_1">
     <g id="line2d_1">
      <path d="M 69.979157 316.54 
L 69.979157 25.44 
" clip-path="url(#pf18ce58de0)" style="fill: none; stroke: #808080; stroke-opacity: 0.3; stroke-width: 0.8; stroke-linecap: square"/>
     </g>
     <g id="line2d_2">
      <defs>
       <path id="m06c5fdd362" d="M 0 0 
L 0 5 
" style="stroke: #000000; stroke-width: 0.75"/>
      </defs>
      <g>
       <use xlink:href="#m06c5fdd362" x="69.979157" y="316.54" style="stroke: #000000; stroke-width: 0.75"/>
      </g>
     </g>
     <g id="text_1">
      <!-- 0.0 -->
      <g transform="translate(62.027595 332.638438)scale(0.1 -0.1)">
       <defs>
        <path id="DejaVuSans-30" d="M 2034 4250 
Q 1547 4250 1301 3770 
Q 1056 3291 1056 2328 
Q 1056 1369 1301 889 
Q 1547 409 2034 409 
Q 2525 409 2770 889 
Q 3016 1369 3016 2328 
Q 3016 3291 2770 3770 
Q 2525 4250 2034 4250 
z
M 2034 4750 
Q 2819 4750 3233 4129 
Q 3647 3509 3647 2328 
Q 3647 1150 3233 529 
Q 2819 -91 2034 -91 
Q 1250 -91 836 529 
Q 422 1150 422 2328 
Q 422 3509 836 4129 
Q 1250 4750 2034 4750 
z
" transform="scale(0.015625)"/>
        <path id="DejaVuSans-2e" d="M 684 794 
L 1344 794 
L 1344 0 
L 684 0 
L 684 794 
z
" transform="scale(0.015625)"/>
       </defs>
       <use xlink:href="#DejaVuSans-30"/>
       <use xlink:href="#DejaVuSans-2e" x="63.623047"/>
       <use xlink:href="#DejaVuSans-30" x="95.410156"/>
      </g>
     </g>
    </g>
    <g id="xtick_2">
     <g id="line2d_3">
      <path d="M 160.072718 316.54 
L 160.072718 25.44 
" clip-path="url(#pf18ce58de0)" style="fill: none; stroke: #808080; stroke-opacity: 0.3; stroke-width: 0.8; stroke-linecap: square"/>
     </g>
     <g id="line2d_4">
      <g>
       <use xlink:href="#m06c5fdd362" x="160.072718" y="316.54" style="stroke: #000000; stroke-width: 0.75"/>
      </g>
     </g>
     <g id="text_2">
      <!-- 0.5 -->
      <g transform="translate(152.121155 332.638438)scale(0.1 -0.1)">
       <defs>
        <path id="DejaVuSans-35" d="M 691 4666 
L 3169 4666 
L 3169 4134 
L 1269 4134 
L 1269 2991 
Q 1406 3038 1543 3061 
Q 1681 3084 1819 3084 
Q 2600 3084 3056 2656 
Q 3513 2228 3513 1497 
Q 3513 744 3044 326 
Q 2575 -91 1722 -91 
Q 1428 -91 1123 -41 
Q 819 9 494 109 
L 494 744 
Q 775 591 1075 516 
Q 1375 441 1709 441 
Q 2250 441 2565 725 
Q 2881 1009 2881 1497 
Q 2881 1984 2565 2268 
Q 2250 2553 1709 2553 
Q 1456 2553 1204 2497 
Q 953 2441 691 2322 
L 691 4666 
z
" transform="scale(0.015625)"/>
       </defs>
       <use xlink:href="#DejaVuSans-30"/>
       <use xlink:href="#DejaVuSans-2e" x="63.623047"/>
       <use xlink:href="#DejaVuSans-35" x="95.410156"/>
      </g>
     </g>
    </g>
    <g id="xtick_3">
     <g id="line2d_5">
      <path d="M 250.166278 316.54 
L 250.166278 25.44 
" clip-path="url(#pf18ce58de0)" style="fill: none; stroke: #808080; stroke-opacity: 0.3; stroke-width: 0.8; stroke-linecap: square"/>
     </g>
     <g id="line2d_6">
      <g>
       <use xlink:href="#m06c5fdd362" x="250.166278" y="316.54" style="stroke: #000000; stroke-width: 0.75"/>
      </g>
     </g>
     <g id="text_3">
      <!-- 1.0 -->
      <g transform="translate(242.214716 332.638438)scale(0.1 -0.1)">
       <defs>
        <path id="DejaVuSans-31" d="M 794 531 
L 1825 531 
L 1825 4091 
L 703 3866 
L 703 4441 
L 1819 4666 
L 2450 4666 
L 2450 531 
L 3481 531 
L 3481 0 
L 794 0 
L 794 531 
z
" transform="scale(0.015625)"/>
       </defs>
       <use xlink:href="#DejaVuSans-31"/>
       <use xlink:href="#DejaVuSans-2e" x="63.623047"/>
       <use xlink:href="#DejaVuSans-30" x="95.410156"/>
      </g>
     </g>
    </g>
    <g id="xtick_4">
     <g id="line2d_7">
      <path d="M 340.259839 316.54 
L 340.259839 25.44 
" clip-path="url(#pf18ce58de0)" style="fill: none; stroke: #808080; stroke-opacity: 0.3; stroke-width: 0.8; stroke-linecap: square"/>
     </g>
     <g id="line2d_8">
      <g>
       <use xlink:href="#m06c5fdd362" x="340.259839" y="316.54" style="stroke: #000000; stroke-width: 0.75"/>
      </g>
     </g>
     <g id="text_4">
      <!-- 1.5 -->
      <g transform="translate(332.308276 332.638438)scale(0.1 -0.1)">
       <use xlink:href="#DejaVuSans-31"/>
       <use xlink:href="#DejaVuSans-2e" x="63.623047"/>
       <use xlink:href="#DejaVuSans-35" x="95.410156"/>
      </g>
     </g>
    </g>
    <g id="xtick_5">
     <g id="line2d_9">
      <path d="M 430.353399 316.54 
L 430.353399 25.44 
" clip-path="url(#pf18ce58de0)" style="fill: none; stroke: #808080; stroke-opacity: 0.3; stroke-width: 0.8; stroke-linecap: square"/>
     </g>
     <g id="line2d_10">
      <g>
       <use xlink:href="#m06c5fdd362" x="430.353399" y="316.54" style="stroke: #000000; stroke-width: 0.75"/>
      </g>
     </g>
     <g id="text_5">
      <!-- 2.0 -->
      <g transform="translate(422.401837 332.638438)scale(0.1 -0.1)">
       <defs>
        <path id="DejaVuSans-32" d="M 1228 531 
L 3431 531 
L 3431 0 
L 469 0 
L 469 531 
Q 828 903 1448 1529 
Q 2069 2156 2228 2338 
Q 2531 2678 2651 2914 
Q 2772 3150 2772 3378 
Q 2772 3750 2511 3984 
Q 2250 4219 1831 4219 
Q 1534 4219 1204 4116 
Q 875 4013 500 3803 
L 500 4441 
Q 881 4594 1212 4672 
Q 1544 4750 1819 4750 
Q 2544 4750 2975 4387 
Q 3406 4025 3406 3419 
Q 3406 3131 3298 2873 
Q 3191 2616 2906 2266 
Q 2828 2175 2409 1742 
Q 1991 1309 1228 531 
z
" transform="scale(0.015625)"/>
       </defs>
       <use xlink:href="#DejaVuSans-32"/>
       <use xlink:href="#DejaVuSans-2e" x="63.623047"/>
       <use xlink:href="#DejaVuSans-30" x="95.410156"/>
      </g>
     </g>
    </g>
    <g id="xtick_6">
     <g id="line2d_11">
      <path d="M 520.44696 316.54 
L 520.44696 25.44 
" clip-path="url(#pf18ce58de0)" style="fill: none; stroke: #808080; stroke-opacity: 0.3; stroke-width: 0.8; stroke-linecap: square"/>
     </g>
     <g id="line2d_12">
      <g>
       <use xlink:href="#m06c5fdd362" x="520.44696" y="316.54" style="stroke: #000000; stroke-width: 0.75"/>
      </g>
     </g>
     <g id="text_6">
      <!-- 2.5 -->
      <g transform="translate(512.495397 332.638438)scale(0.1 -0.1)">
       <use xlink:href="#DejaVuSans-32"/>
       <use xlink:href="#DejaVuSans-2e" x="63.623047"/>
       <use xlink:href="#DejaVuSans-35" x="95.410156"/>
      </g>
     </g>
    </g>
    <g id="xtick_7">
     <g id="line2d_13">
      <path d="M 610.54052 316.54 
L 610.54052 25.44 
" clip-path="url(#pf18ce58de0)" style="fill: none; stroke: #808080; stroke-opacity: 0.3; stroke-width: 0.8; stroke-linecap: square"/>
     </g>
     <g id="line2d_14">
      <g>
       <use xlink:href="#m06c5fdd362" x="610.54052" y="316.54" style="stroke: #000000; stroke-width: 0.75"/>
      </g>
     </g>
     <g id="text_7">
      <!-- 3.0 -->
      <g transform="translate(602.588958 332.638438)scale(0.1 -0.1)">
       <defs>
        <path id="DejaVuSans-33" d="M 2597 2516 
Q 3050 2419 3304 2112 
Q 3559 1806 3559 1356 
Q 3559 666 3084 287 
Q 2609 -91 1734 -91 
Q 1441 -91 1130 -33 
Q 819 25 488 141 
L 488 750 
Q 750 597 1062 519 
Q 1375 441 1716 441 
Q 2309 441 2620 675 
Q 2931 909 2931 1356 
Q 2931 1769 2642 2001 
Q 2353 2234 1838 2234 
L 1294 2234 
L 1294 2753 
L 1863 2753 
Q 2328 2753 2575 2939 
Q 2822 3125 2822 3475 
Q 2822 3834 2567 4026 
Q 2313 4219 1838 4219 
Q 1578 4219 1281 4162 
Q 984 4106 628 3988 
L 628 4550 
Q 988 4650 1302 4700 
Q 1616 4750 1894 4750 
Q 2613 4750 3031 4423 
Q 3450 4097 3450 3541 
Q 3450 3153 3228 2886 
Q 3006 2619 2597 2516 
z
" transform="scale(0.015625)"/>
       </defs>
       <use xlink:href="#DejaVuSans-33"/>
       <use xlink:href="#DejaVuSans-2e" x="63.623047"/>
       <use xlink:href="#DejaVuSans-30" x="95.410156"/>
      </g>
     </g>
    </g>
    <g id="xtick_8">
     <g id="line2d_15">
      <path d="M 700.634081 316.54 
L 700.634081 25.44 
" clip-path="url(#pf18ce58de0)" style="fill: none; stroke: #808080; stroke-opacity: 0.3; stroke-width: 0.8; stroke-linecap: square"/>
     </g>
     <g id="line2d_16">
      <g>
       <use xlink:href="#m06c5fdd362" x="700.634081" y="316.54" style="stroke: #000000; stroke-width: 0.75"/>
      </g>
     </g>
     <g id="text_8">
      <!-- 3.5 -->
      <g transform="translate(692.682518 332.638438)scale(0.1 -0.1)">
       <use xlink:href="#DejaVuSans-33"/>
       <use xlink:href="#DejaVuSans-2e" x="63.623047"/>
       <use xlink:href="#DejaVuSans-35" x="95.410156"/>
      </g>
     </g>
    </g>
    <g id="xtick_9">
     <g id="line2d_17">
      <path d="M 51.960445 316.54 
L 51.960445 25.44 
" clip-path="url(#pf18ce58de0)" style="fill: none; stroke: #d3d3d3; stroke-opacity: 0.2; stroke-width: 0.8; stroke-linecap: square"/>
     </g>
     <g id="line2d_18">
      <defs>
       <path id="m1693c5474f" d="M 0 0 
L 0 2 
" style="stroke: #000000; stroke-width: 0.6"/>
      </defs>
      <g>
       <use xlink:href="#m1693c5474f" x="51.960445" y="316.54" style="stroke: #000000; stroke-width: 0.6"/>
      </g>
     </g>
    </g>
    <g id="xtick_10">
     <g id="line2d_19">
      <path d="M 87.997869 316.54 
L 87.997869 25.44 
" clip-path="url(#pf18ce58de0)" style="fill: none; stroke: #d3d3d3; stroke-opacity: 0.2; stroke-width: 0.8; stroke-linecap: square"/>
     </g>
     <g id="line2d_20">
      <g>
       <use xlink:href="#m1693c5474f" x="87.997869" y="316.54" style="stroke: #000000; stroke-width: 0.6"/>
      </g>
     </g>
    </g>
    <g id="xtick_11">
     <g id="line2d_21">
      <path d="M 106.016581 316.54 
L 106.016581 25.44 
" clip-path="url(#pf18ce58de0)" style="fill: none; stroke: #d3d3d3; stroke-opacity: 0.2; stroke-width: 0.8; stroke-linecap: square"/>
     </g>
     <g id="line2d_22">
      <g>
       <use xlink:href="#m1693c5474f" x="106.016581" y="316.54" style="stroke: #000000; stroke-width: 0.6"/>
      </g>
     </g>
    </g>
    <g id="xtick_12">
     <g id="line2d_23">
      <path d="M 124.035293 316.54 
L 124.035293 25.44 
" clip-path="url(#pf18ce58de0)" style="fill: none; stroke: #d3d3d3; stroke-opacity: 0.2; stroke-width: 0.8; stroke-linecap: square"/>
     </g>
     <g id="line2d_24">
      <g>
       <use xlink:href="#m1693c5474f" x="124.035293" y="316.54" style="stroke: #000000; stroke-width: 0.6"/>
      </g>
     </g>
    </g>
    <g id="xtick_13">
     <g id="line2d_25">
      <path d="M 142.054005 316.54 
L 142.054005 25.44 
" clip-path="url(#pf18ce58de0)" style="fill: none; stroke: #d3d3d3; stroke-opacity: 0.2; stroke-width: 0.8; stroke-linecap: square"/>
     </g>
     <g id="line2d_26">
      <g>
       <use xlink:href="#m1693c5474f" x="142.054005" y="316.54" style="stroke: #000000; stroke-width: 0.6"/>
      </g>
     </g>
    </g>
    <g id="xtick_14">
     <g id="line2d_27">
      <path d="M 178.09143 316.54 
L 178.09143 25.44 
" clip-path="url(#pf18ce58de0)" style="fill: none; stroke: #d3d3d3; stroke-opacity: 0.2; stroke-width: 0.8; stroke-linecap: square"/>
     </g>
     <g id="line2d_28">
      <g>
       <use xlink:href="#m1693c5474f" x="178.09143" y="316.54" style="stroke: #000000; stroke-width: 0.6"/>
      </g>
     </g>
    </g>
    <g id="xtick_15">
     <g id="line2d_29">
      <path d="M 196.110142 316.54 
L 196.110142 25.44 
" clip-path="url(#pf18ce58de0)" style="fill: none; stroke: #d3d3d3; stroke-opacity: 0.2; stroke-width: 0.8; stroke-linecap: square"/>
     </g>
     <g id="line2d_30">
      <g>
       <use xlink:href="#m1693c5474f" x="196.110142" y="316.54" style="stroke: #000000; stroke-width: 0.6"/>
      </g>
     </g>
    </g>
    <g id="xtick_16">
     <g id="line2d_31">
      <path d="M 214.128854 316.54 
L 214.128854 25.44 
" clip-path="url(#pf18ce58de0)" style="fill: none; stroke: #d3d3d3; stroke-opacity: 0.2; stroke-width: 0.8; stroke-linecap: square"/>
     </g>
     <g id="line2d_32">
      <g>
       <use xlink:href="#m1693c5474f" x="214.128854" y="316.54" style="stroke: #000000; stroke-width: 0.6"/>
      </g>
     </g>
    </g>
    <g id="xtick_17">
     <g id="line2d_33">
      <path d="M 232.147566 316.54 
L 232.147566 25.44 
" clip-path="url(#pf18ce58de0)" style="fill: none; stroke: #d3d3d3; stroke-opacity: 0.2; stroke-width: 0.8; stroke-linecap: square"/>
     </g>
     <g id="line2d_34">
      <g>
       <use xlink:href="#m1693c5474f" x="232.147566" y="316.54" style="stroke: #000000; stroke-width: 0.6"/>
      </g>
     </g>
    </g>
    <g id="xtick_18">
     <g id="line2d_35">
      <path d="M 268.18499 316.54 
L 268.18499 25.44 
" clip-path="url(#pf18ce58de0)" style="fill: none; stroke: #d3d3d3; stroke-opacity: 0.2; stroke-width: 0.8; stroke-linecap: square"/>
     </g>
     <g id="line2d_36">
      <g>
       <use xlink:href="#m1693c5474f" x="268.18499" y="316.54" style="stroke: #000000; stroke-width: 0.6"/>
      </g>
     </g>
    </g>
    <g id="xtick_19">
     <g id="line2d_37">
      <path d="M 286.203702 316.54 
L 286.203702 25.44 
" clip-path="url(#pf18ce58de0)" style="fill: none; stroke: #d3d3d3; stroke-opacity: 0.2; stroke-width: 0.8; stroke-linecap: square"/>
     </g>
     <g id="line2d_38">
      <g>
       <use xlink:href="#m1693c5474f" x="286.203702" y="316.54" style="stroke: #000000; stroke-width: 0.6"/>
      </g>
     </g>
    </g>
    <g id="xtick_20">
     <g id="line2d_39">
      <path d="M 304.222414 316.54 
L 304.222414 25.44 
" clip-path="url(#pf18ce58de0)" style="fill: none; stroke: #d3d3d3; stroke-opacity: 0.2; stroke-width: 0.8; stroke-linecap: square"/>
     </g>
     <g id="line2d_40">
      <g>
       <use xlink:href="#m1693c5474f" x="304.222414" y="316.54" style="stroke: #000000; stroke-width: 0.6"/>
      </g>
     </g>
    </g>
    <g id="xtick_21">
     <g id="line2d_41">
      <path d="M 322.241126 316.54 
L 322.241126 25.44 
" clip-path="url(#pf18ce58de0)" style="fill: none; stroke: #d3d3d3; stroke-opacity: 0.2; stroke-width: 0.8; stroke-linecap: square"/>
     </g>
     <g id="line2d_42">
      <g>
       <use xlink:href="#m1693c5474f" x="322.241126" y="316.54" style="stroke: #000000; stroke-width: 0.6"/>
      </g>
     </g>
    </g>
    <g id="xtick_22">
     <g id="line2d_43">
      <path d="M 358.278551 316.54 
L 358.278551 25.44 
" clip-path="url(#pf18ce58de0)" style="fill: none; stroke: #d3d3d3; stroke-opacity: 0.2; stroke-width: 0.8; stroke-linecap: square"/>
     </g>
     <g id="line2d_44">
      <g>
       <use xlink:href="#m1693c5474f" x="358.278551" y="316.54" style="stroke: #000000; stroke-width: 0.6"/>
      </g>
     </g>
    </g>
    <g id="xtick_23">
     <g id="line2d_45">
      <path d="M 376.297263 316.54 
L 376.297263 25.44 
" clip-path="url(#pf18ce58de0)" style="fill: none; stroke: #d3d3d3; stroke-opacity: 0.2; stroke-width: 0.8; stroke-linecap: square"/>
     </g>
     <g id="line2d_46">
      <g>
       <use xlink:href="#m1693c5474f" x="376.297263" y="316.54" style="stroke: #000000; stroke-width: 0.6"/>
      </g>
     </g>
    </g>
    <g id="xtick_24">
     <g id="line2d_47">
      <path d="M 394.315975 316.54 
L 394.315975 25.44 
" clip-path="url(#pf18ce58de0)" style="fill: none; stroke: #d3d3d3; stroke-opacity: 0.2; stroke-width: 0.8; stroke-linecap: square"/>
     </g>
     <g id="line2d_48">
      <g>
       <use xlink:href="#m1693c5474f" x="394.315975" y="316.54" style="stroke: #000000; stroke-width: 0.6"/>
      </g>
     </g>
    </g>
    <g id="xtick_25">
     <g id="line2d_49">
      <path d="M 412.334687 316.54 
L 412.334687 25.44 
" clip-path="url(#pf18ce58de0)" style="fill: none; stroke: #d3d3d3; stroke-opacity: 0.2; stroke-width: 0.8; stroke-linecap: square"/>
     </g>
     <g id="line2d_50">
      <g>
       <use xlink:href="#m1693c5474f" x="412.334687" y="316.54" style="stroke: #000000; stroke-width: 0.6"/>
      </g>
     </g>
    </g>
    <g id="xtick_26">
     <g id="line2d_51">
      <path d="M 448.372111 316.54 
L 448.372111 25.44 
" clip-path="url(#pf18ce58de0)" style="fill: none; stroke: #d3d3d3; stroke-opacity: 0.2; stroke-width: 0.8; stroke-linecap: square"/>
     </g>
     <g id="line2d_52">
      <g>
       <use xlink:href="#m1693c5474f" x="448.372111" y="316.54" style="stroke: #000000; stroke-width: 0.6"/>
      </g>
     </g>
    </g>
    <g id="xtick_27">
     <g id="line2d_53">
      <path d="M 466.390823 316.54 
L 466.390823 25.44 
" clip-path="url(#pf18ce58de0)" style="fill: none; stroke: #d3d3d3; stroke-opacity: 0.2; stroke-width: 0.8; stroke-linecap: square"/>
     </g>
     <g id="line2d_54">
      <g>
       <use xlink:href="#m1693c5474f" x="466.390823" y="316.54" style="stroke: #000000; stroke-width: 0.6"/>
      </g>
     </g>
    </g>
    <g id="xtick_28">
     <g id="line2d_55">
      <path d="M 484.409535 316.54 
L 484.409535 25.44 
" clip-path="url(#pf18ce58de0)" style="fill: none; stroke: #d3d3d3; stroke-opacity: 0.2; stroke-width: 0.8; stroke-linecap: square"/>
     </g>
     <g id="line2d_56">
      <g>
       <use xlink:href="#m1693c5474f" x="484.409535" y="316.54" style="stroke: #000000; stroke-width: 0.6"/>
      </g>
     </g>
    </g>
    <g id="xtick_29">
     <g id="line2d_57">
      <path d="M 502.428247 316.54 
L 502.428247 25.44 
" clip-path="url(#pf18ce58de0)" style="fill: none; stroke: #d3d3d3; stroke-opacity: 0.2; stroke-width: 0.8; stroke-linecap: square"/>
     </g>
     <g id="line2d_58">
      <g>
       <use xlink:href="#m1693c5474f" x="502.428247" y="316.54" style="stroke: #000000; stroke-width: 0.6"/>
      </g>
     </g>
    </g>
    <g id="xtick_30">
     <g id="line2d_59">
      <path d="M 538.465672 316.54 
L 538.465672 25.44 
" clip-path="url(#pf18ce58de0)" style="fill: none; stroke: #d3d3d3; stroke-opacity: 0.2; stroke-width: 0.8; stroke-linecap: square"/>
     </g>
     <g id="line2d_60">
      <g>
       <use xlink:href="#m1693c5474f" x="538.465672" y="316.54" style="stroke: #000000; stroke-width: 0.6"/>
      </g>
     </g>
    </g>
    <g id="xtick_31">
     <g id="line2d_61">
      <path d="M 556.484384 316.54 
L 556.484384 25.44 
" clip-path="url(#pf18ce58de0)" style="fill: none; stroke: #d3d3d3; stroke-opacity: 0.2; stroke-width: 0.8; stroke-linecap: square"/>
     </g>
     <g id="line2d_62">
      <g>
       <use xlink:href="#m1693c5474f" x="556.484384" y="316.54" style="stroke: #000000; stroke-width: 0.6"/>
      </g>
     </g>
    </g>
    <g id="xtick_32">
     <g id="line2d_63">
      <path d="M 574.503096 316.54 
L 574.503096 25.44 
" clip-path="url(#pf18ce58de0)" style="fill: none; stroke: #d3d3d3; stroke-opacity: 0.2; stroke-width: 0.8; stroke-linecap: square"/>
     </g>
     <g id="line2d_64">
      <g>
       <use xlink:href="#m1693c5474f" x="574.503096" y="316.54" style="stroke: #000000; stroke-width: 0.6"/>
      </g>
     </g>
    </g>
    <g id="xtick_33">
     <g id="line2d_65">
      <path d="M 592.521808 316.54 
L 592.521808 25.44 
" clip-path="url(#pf18ce58de0)" style="fill: none; stroke: #d3d3d3; stroke-opacity: 0.2; stroke-width: 0.8; stroke-linecap: square"/>
     </g>
     <g id="line2d_66">
      <g>
       <use xlink:href="#m1693c5474f" x="592.521808" y="316.54" style="stroke: #000000; stroke-width: 0.6"/>
      </g>
     </g>
    </g>
    <g id="xtick_34">
     <g id="line2d_67">
      <path d="M 628.559232 316.54 
L 628.559232 25.44 
" clip-path="url(#pf18ce58de0)" style="fill: none; stroke: #d3d3d3; stroke-opacity: 0.2; stroke-width: 0.8; stroke-linecap: square"/>
     </g>
     <g id="line2d_68">
      <g>
       <use xlink:href="#m1693c5474f" x="628.559232" y="316.54" style="stroke: #000000; stroke-width: 0.6"/>
      </g>
     </g>
    </g>
    <g id="xtick_35">
     <g id="line2d_69">
      <path d="M 646.577944 316.54 
L 646.577944 25.44 
" clip-path="url(#pf18ce58de0)" style="fill: none; stroke: #d3d3d3; stroke-opacity: 0.2; stroke-width: 0.8; stroke-linecap: square"/>
     </g>
     <g id="line2d_70">
      <g>
       <use xlink:href="#m1693c5474f" x="646.577944" y="316.54" style="stroke: #000000; stroke-width: 0.6"/>
      </g>
     </g>
    </g>
    <g id="xtick_36">
     <g id="line2d_71">
      <path d="M 664.596656 316.54 
L 664.596656 25.44 
" clip-path="url(#pf18ce58de0)" style="fill: none; stroke: #d3d3d3; stroke-opacity: 0.2; stroke-width: 0.8; stroke-linecap: square"/>
     </g>
     <g id="line2d_72">
      <g>
       <use xlink:href="#m1693c5474f" x="664.596656" y="316.54" style="stroke: #000000; stroke-width: 0.6"/>
      </g>
     </g>
    </g>
    <g id="xtick_37">
     <g id="line2d_73">
      <path d="M 682.615368 316.54 
L 682.615368 25.44 
" clip-path="url(#pf18ce58de0)" style="fill: none; stroke: #d3d3d3; stroke-opacity: 0.2; stroke-width: 0.8; stroke-linecap: square"/>
     </g>
     <g id="line2d_74">
      <g>
       <use xlink:href="#m1693c5474f" x="682.615368" y="316.54" style="stroke: #000000; stroke-width: 0.6"/>
      </g>
     </g>
    </g>
    <g id="text_9">
     <!-- Deformación [mm/mm] -->
     <g transform="translate(313.404018 346.316563)scale(0.1 -0.1)">
      <defs>
       <path id="DejaVuSans-44" d="M 1259 4147 
L 1259 519 
L 2022 519 
Q 2988 519 3436 956 
Q 3884 1394 3884 2338 
Q 3884 3275 3436 3711 
Q 2988 4147 2022 4147 
L 1259 4147 
z
M 628 4666 
L 1925 4666 
Q 3281 4666 3915 4102 
Q 4550 3538 4550 2338 
Q 4550 1131 3912 565 
Q 3275 0 1925 0 
L 628 0 
L 628 4666 
z
" transform="scale(0.015625)"/>
       <path id="DejaVuSans-65" d="M 3597 1894 
L 3597 1613 
L 953 1613 
Q 991 1019 1311 708 
Q 1631 397 2203 397 
Q 2534 397 2845 478 
Q 3156 559 3463 722 
L 3463 178 
Q 3153 47 2828 -22 
Q 2503 -91 2169 -91 
Q 1331 -91 842 396 
Q 353 884 353 1716 
Q 353 2575 817 3079 
Q 1281 3584 2069 3584 
Q 2775 3584 3186 3129 
Q 3597 2675 3597 1894 
z
M 3022 2063 
Q 3016 2534 2758 2815 
Q 2500 3097 2075 3097 
Q 1594 3097 1305 2825 
Q 1016 2553 972 2059 
L 3022 2063 
z
" transform="scale(0.015625)"/>
       <path id="DejaVuSans-66" d="M 2375 4863 
L 2375 4384 
L 1825 4384 
Q 1516 4384 1395 4259 
Q 1275 4134 1275 3809 
L 1275 3500 
L 2222 3500 
L 2222 3053 
L 1275 3053 
L 1275 0 
L 697 0 
L 697 3053 
L 147 3053 
L 147 3500 
L 697 3500 
L 697 3744 
Q 697 4328 969 4595 
Q 1241 4863 1831 4863 
L 2375 4863 
z
" transform="scale(0.015625)"/>
       <path id="DejaVuSans-6f" d="M 1959 3097 
Q 1497 3097 1228 2736 
Q 959 2375 959 1747 
Q 959 1119 1226 758 
Q 1494 397 1959 397 
Q 2419 397 2687 759 
Q 2956 1122 2956 1747 
Q 2956 2369 2687 2733 
Q 2419 3097 1959 3097 
z
M 1959 3584 
Q 2709 3584 3137 3096 
Q 3566 2609 3566 1747 
Q 3566 888 3137 398 
Q 2709 -91 1959 -91 
Q 1206 -91 779 398 
Q 353 888 353 1747 
Q 353 2609 779 3096 
Q 1206 3584 1959 3584 
z
" transform="scale(0.015625)"/>
       <path id="DejaVuSans-72" d="M 2631 2963 
Q 2534 3019 2420 3045 
Q 2306 3072 2169 3072 
Q 1681 3072 1420 2755 
Q 1159 2438 1159 1844 
L 1159 0 
L 581 0 
L 581 3500 
L 1159 3500 
L 1159 2956 
Q 1341 3275 1631 3429 
Q 1922 3584 2338 3584 
Q 2397 3584 2469 3576 
Q 2541 3569 2628 3553 
L 2631 2963 
z
" transform="scale(0.015625)"/>
       <path id="DejaVuSans-6d" d="M 3328 2828 
Q 3544 3216 3844 3400 
Q 4144 3584 4550 3584 
Q 5097 3584 5394 3201 
Q 5691 2819 5691 2113 
L 5691 0 
L 5113 0 
L 5113 2094 
Q 5113 2597 4934 2840 
Q 4756 3084 4391 3084 
Q 3944 3084 3684 2787 
Q 3425 2491 3425 1978 
L 3425 0 
L 2847 0 
L 2847 2094 
Q 2847 2600 2669 2842 
Q 2491 3084 2119 3084 
Q 1678 3084 1418 2786 
Q 1159 2488 1159 1978 
L 1159 0 
L 581 0 
L 581 3500 
L 1159 3500 
L 1159 2956 
Q 1356 3278 1631 3431 
Q 1906 3584 2284 3584 
Q 2666 3584 2933 3390 
Q 3200 3197 3328 2828 
z
" transform="scale(0.015625)"/>
       <path id="DejaVuSans-61" d="M 2194 1759 
Q 1497 1759 1228 1600 
Q 959 1441 959 1056 
Q 959 750 1161 570 
Q 1363 391 1709 391 
Q 2188 391 2477 730 
Q 2766 1069 2766 1631 
L 2766 1759 
L 2194 1759 
z
M 3341 1997 
L 3341 0 
L 2766 0 
L 2766 531 
Q 2569 213 2275 61 
Q 1981 -91 1556 -91 
Q 1019 -91 701 211 
Q 384 513 384 1019 
Q 384 1609 779 1909 
Q 1175 2209 1959 2209 
L 2766 2209 
L 2766 2266 
Q 2766 2663 2505 2880 
Q 2244 3097 1772 3097 
Q 1472 3097 1187 3025 
Q 903 2953 641 2809 
L 641 3341 
Q 956 3463 1253 3523 
Q 1550 3584 1831 3584 
Q 2591 3584 2966 3190 
Q 3341 2797 3341 1997 
z
" transform="scale(0.015625)"/>
       <path id="DejaVuSans-63" d="M 3122 3366 
L 3122 2828 
Q 2878 2963 2633 3030 
Q 2388 3097 2138 3097 
Q 1578 3097 1268 2742 
Q 959 2388 959 1747 
Q 959 1106 1268 751 
Q 1578 397 2138 397 
Q 2388 397 2633 464 
Q 2878 531 3122 666 
L 3122 134 
Q 2881 22 2623 -34 
Q 2366 -91 2075 -91 
Q 1284 -91 818 406 
Q 353 903 353 1747 
Q 353 2603 823 3093 
Q 1294 3584 2113 3584 
Q 2378 3584 2631 3529 
Q 2884 3475 3122 3366 
z
" transform="scale(0.015625)"/>
       <path id="DejaVuSans-69" d="M 603 3500 
L 1178 3500 
L 1178 0 
L 603 0 
L 603 3500 
z
M 603 4863 
L 1178 4863 
L 1178 4134 
L 603 4134 
L 603 4863 
z
" transform="scale(0.015625)"/>
       <path id="DejaVuSans-f3" d="M 1959 3097 
Q 1497 3097 1228 2736 
Q 959 2375 959 1747 
Q 959 1119 1226 758 
Q 1494 397 1959 397 
Q 2419 397 2687 759 
Q 2956 1122 2956 1747 
Q 2956 2369 2687 2733 
Q 2419 3097 1959 3097 
z
M 1959 3584 
Q 2709 3584 3137 3096 
Q 3566 2609 3566 1747 
Q 3566 888 3137 398 
Q 2709 -91 1959 -91 
Q 1206 -91 779 398 
Q 353 888 353 1747 
Q 353 2609 779 3096 
Q 1206 3584 1959 3584 
z
M 2394 5119 
L 3016 5119 
L 1997 3944 
L 1519 3944 
L 2394 5119 
z
" transform="scale(0.015625)"/>
       <path id="DejaVuSans-6e" d="M 3513 2113 
L 3513 0 
L 2938 0 
L 2938 2094 
Q 2938 2591 2744 2837 
Q 2550 3084 2163 3084 
Q 1697 3084 1428 2787 
Q 1159 2491 1159 1978 
L 1159 0 
L 581 0 
L 581 3500 
L 1159 3500 
L 1159 2956 
Q 1366 3272 1645 3428 
Q 1925 3584 2291 3584 
Q 2894 3584 3203 3211 
Q 3513 2838 3513 2113 
z
" transform="scale(0.015625)"/>
       <path id="DejaVuSans-20" transform="scale(0.015625)"/>
       <path id="DejaVuSans-5b" d="M 550 4863 
L 1875 4863 
L 1875 4416 
L 1125 4416 
L 1125 -397 
L 1875 -397 
L 1875 -844 
L 550 -844 
L 550 4863 
z
" transform="scale(0.015625)"/>
       <path id="DejaVuSans-2f" d="M 1625 4666 
L 2156 4666 
L 531 -594 
L 0 -594 
L 1625 4666 
z
" transform="scale(0.015625)"/>
       <path id="DejaVuSans-5d" d="M 1947 4863 
L 1947 -844 
L 622 -844 
L 622 -397 
L 1369 -397 
L 1369 4416 
L 622 4416 
L 622 4863 
L 1947 4863 
z
" transform="scale(0.015625)"/>
      </defs>
      <use xlink:href="#DejaVuSans-44"/>
      <use xlink:href="#DejaVuSans-65" x="77.001953"/>
      <use xlink:href="#DejaVuSans-66" x="138.525391"/>
      <use xlink:href="#DejaVuSans-6f" x="173.730469"/>
      <use xlink:href="#DejaVuSans-72" x="234.912109"/>
      <use xlink:href="#DejaVuSans-6d" x="274.275391"/>
      <use xlink:href="#DejaVuSans-61" x="371.6875"/>
      <use xlink:href="#DejaVuSans-63" x="432.966797"/>
      <use xlink:href="#DejaVuSans-69" x="487.947266"/>
      <use xlink:href="#DejaVuSans-f3" x="515.730469"/>
      <use xlink:href="#DejaVuSans-6e" x="576.912109"/>
      <use xlink:href="#DejaVuSans-20" x="640.291016"/>
      <use xlink:href="#DejaVuSans-5b" x="672.078125"/>
      <use xlink:href="#DejaVuSans-6d" x="711.091797"/>
      <use xlink:href="#DejaVuSans-6d" x="808.503906"/>
      <use xlink:href="#DejaVuSans-2f" x="905.916016"/>
      <use xlink:href="#DejaVuSans-6d" x="939.607422"/>
      <use xlink:href="#DejaVuSans-6d" x="1037.019531"/>
      <use xlink:href="#DejaVuSans-5d" x="1134.431641"/>
     </g>
    </g>
   </g>
   <g id="matplotlib.axis_2">
    <g id="ytick_1">
     <g id="line2d_75">
      <path d="M 39.77 303.477002 
L 704.380224 303.477002 
" clip-path="url(#pf18ce58de0)" style="fill: none; stroke: #808080; stroke-opacity: 0.3; stroke-width: 0.8; stroke-linecap: square"/>
     </g>
     <g id="line2d_76">
      <defs>
       <path id="m329e6f69a9" d="M 0 0 
L -5 0 
" style="stroke: #000000; stroke-width: 0.75"/>
      </defs>
      <g>
       <use xlink:href="#m329e6f69a9" x="39.77" y="303.477002" style="stroke: #000000; stroke-width: 0.75"/>
      </g>
     </g>
     <g id="text_10">
      <!-- 0 -->
      <g transform="translate(24.9075 307.276221)scale(0.1 -0.1)">
       <use xlink:href="#DejaVuSans-30"/>
      </g>
     </g>
    </g>
    <g id="ytick_2">
     <g id="line2d_77">
      <path d="M 39.77 245.468712 
L 704.380224 245.468712 
" clip-path="url(#pf18ce58de0)" style="fill: none; stroke: #808080; stroke-opacity: 0.3; stroke-width: 0.8; stroke-linecap: square"/>
     </g>
     <g id="line2d_78">
      <g>
       <use xlink:href="#m329e6f69a9" x="39.77" y="245.468712" style="stroke: #000000; stroke-width: 0.75"/>
      </g>
     </g>
     <g id="text_11">
      <!-- 2 -->
      <g transform="translate(24.9075 249.267931)scale(0.1 -0.1)">
       <use xlink:href="#DejaVuSans-32"/>
      </g>
     </g>
    </g>
    <g id="ytick_3">
     <g id="line2d_79">
      <path d="M 39.77 187.460421 
L 704.380224 187.460421 
" clip-path="url(#pf18ce58de0)" style="fill: none; stroke: #808080; stroke-opacity: 0.3; stroke-width: 0.8; stroke-linecap: square"/>
     </g>
     <g id="line2d_80">
      <g>
       <use xlink:href="#m329e6f69a9" x="39.77" y="187.460421" style="stroke: #000000; stroke-width: 0.75"/>
      </g>
     </g>
     <g id="text_12">
      <!-- 4 -->
      <g transform="translate(24.9075 191.25964)scale(0.1 -0.1)">
       <defs>
        <path id="DejaVuSans-34" d="M 2419 4116 
L 825 1625 
L 2419 1625 
L 2419 4116 
z
M 2253 4666 
L 3047 4666 
L 3047 1625 
L 3713 1625 
L 3713 1100 
L 3047 1100 
L 3047 0 
L 2419 0 
L 2419 1100 
L 313 1100 
L 313 1709 
L 2253 4666 
z
" transform="scale(0.015625)"/>
       </defs>
       <use xlink:href="#DejaVuSans-34"/>
      </g>
     </g>
    </g>
    <g id="ytick_4">
     <g id="line2d_81">
      <path d="M 39.77 129.452131 
L 704.380224 129.452131 
" clip-path="url(#pf18ce58de0)" style="fill: none; stroke: #808080; stroke-opacity: 0.3; stroke-width: 0.8; stroke-linecap: square"/>
     </g>
     <g id="line2d_82">
      <g>
       <use xlink:href="#m329e6f69a9" x="39.77" y="129.452131" style="stroke: #000000; stroke-width: 0.75"/>
      </g>
     </g>
     <g id="text_13">
      <!-- 6 -->
      <g transform="translate(24.9075 133.25135)scale(0.1 -0.1)">
       <defs>
        <path id="DejaVuSans-36" d="M 2113 2584 
Q 1688 2584 1439 2293 
Q 1191 2003 1191 1497 
Q 1191 994 1439 701 
Q 1688 409 2113 409 
Q 2538 409 2786 701 
Q 3034 994 3034 1497 
Q 3034 2003 2786 2293 
Q 2538 2584 2113 2584 
z
M 3366 4563 
L 3366 3988 
Q 3128 4100 2886 4159 
Q 2644 4219 2406 4219 
Q 1781 4219 1451 3797 
Q 1122 3375 1075 2522 
Q 1259 2794 1537 2939 
Q 1816 3084 2150 3084 
Q 2853 3084 3261 2657 
Q 3669 2231 3669 1497 
Q 3669 778 3244 343 
Q 2819 -91 2113 -91 
Q 1303 -91 875 529 
Q 447 1150 447 2328 
Q 447 3434 972 4092 
Q 1497 4750 2381 4750 
Q 2619 4750 2861 4703 
Q 3103 4656 3366 4563 
z
" transform="scale(0.015625)"/>
       </defs>
       <use xlink:href="#DejaVuSans-36"/>
      </g>
     </g>
    </g>
    <g id="ytick_5">
     <g id="line2d_83">
      <path d="M 39.77 71.44384 
L 704.380224 71.44384 
" clip-path="url(#pf18ce58de0)" style="fill: none; stroke: #808080; stroke-opacity: 0.3; stroke-width: 0.8; stroke-linecap: square"/>
     </g>
     <g id="line2d_84">
      <g>
       <use xlink:href="#m329e6f69a9" x="39.77" y="71.44384" style="stroke: #000000; stroke-width: 0.75"/>
      </g>
     </g>
     <g id="text_14">
      <!-- 8 -->
      <g transform="translate(24.9075 75.243059)scale(0.1 -0.1)">
       <defs>
        <path id="DejaVuSans-38" d="M 2034 2216 
Q 1584 2216 1326 1975 
Q 1069 1734 1069 1313 
Q 1069 891 1326 650 
Q 1584 409 2034 409 
Q 2484 409 2743 651 
Q 3003 894 3003 1313 
Q 3003 1734 2745 1975 
Q 2488 2216 2034 2216 
z
M 1403 2484 
Q 997 2584 770 2862 
Q 544 3141 544 3541 
Q 544 4100 942 4425 
Q 1341 4750 2034 4750 
Q 2731 4750 3128 4425 
Q 3525 4100 3525 3541 
Q 3525 3141 3298 2862 
Q 3072 2584 2669 2484 
Q 3125 2378 3379 2068 
Q 3634 1759 3634 1313 
Q 3634 634 3220 271 
Q 2806 -91 2034 -91 
Q 1263 -91 848 271 
Q 434 634 434 1313 
Q 434 1759 690 2068 
Q 947 2378 1403 2484 
z
M 1172 3481 
Q 1172 3119 1398 2916 
Q 1625 2713 2034 2713 
Q 2441 2713 2670 2916 
Q 2900 3119 2900 3481 
Q 2900 3844 2670 4047 
Q 2441 4250 2034 4250 
Q 1625 4250 1398 4047 
Q 1172 3844 1172 3481 
z
" transform="scale(0.015625)"/>
       </defs>
       <use xlink:href="#DejaVuSans-38"/>
      </g>
     </g>
    </g>
    <g id="ytick_6">
     <g id="line2d_85">
      <path d="M 39.77 288.97493 
L 704.380224 288.97493 
" clip-path="url(#pf18ce58de0)" style="fill: none; stroke: #d3d3d3; stroke-opacity: 0.2; stroke-width: 0.8; stroke-linecap: square"/>
     </g>
     <g id="line2d_86">
      <defs>
       <path id="me7529c0709" d="M 0 0 
L -2 0 
" style="stroke: #000000; stroke-width: 0.6"/>
      </defs>
      <g>
       <use xlink:href="#me7529c0709" x="39.77" y="288.97493" style="stroke: #000000; stroke-width: 0.6"/>
      </g>
     </g>
    </g>
    <g id="ytick_7">
     <g id="line2d_87">
      <path d="M 39.77 274.472857 
L 704.380224 274.472857 
" clip-path="url(#pf18ce58de0)" style="fill: none; stroke: #d3d3d3; stroke-opacity: 0.2; stroke-width: 0.8; stroke-linecap: square"/>
     </g>
     <g id="line2d_88">
      <g>
       <use xlink:href="#me7529c0709" x="39.77" y="274.472857" style="stroke: #000000; stroke-width: 0.6"/>
      </g>
     </g>
    </g>
    <g id="ytick_8">
     <g id="line2d_89">
      <path d="M 39.77 259.970785 
L 704.380224 259.970785 
" clip-path="url(#pf18ce58de0)" style="fill: none; stroke: #d3d3d3; stroke-opacity: 0.2; stroke-width: 0.8; stroke-linecap: square"/>
     </g>
     <g id="line2d_90">
      <g>
       <use xlink:href="#me7529c0709" x="39.77" y="259.970785" style="stroke: #000000; stroke-width: 0.6"/>
      </g>
     </g>
    </g>
    <g id="ytick_9">
     <g id="line2d_91">
      <path d="M 39.77 230.966639 
L 704.380224 230.966639 
" clip-path="url(#pf18ce58de0)" style="fill: none; stroke: #d3d3d3; stroke-opacity: 0.2; stroke-width: 0.8; stroke-linecap: square"/>
     </g>
     <g id="line2d_92">
      <g>
       <use xlink:href="#me7529c0709" x="39.77" y="230.966639" style="stroke: #000000; stroke-width: 0.6"/>
      </g>
     </g>
    </g>
    <g id="ytick_10">
     <g id="line2d_93">
      <path d="M 39.77 216.464567 
L 704.380224 216.464567 
" clip-path="url(#pf18ce58de0)" style="fill: none; stroke: #d3d3d3; stroke-opacity: 0.2; stroke-width: 0.8; stroke-linecap: square"/>
     </g>
     <g id="line2d_94">
      <g>
       <use xlink:href="#me7529c0709" x="39.77" y="216.464567" style="stroke: #000000; stroke-width: 0.6"/>
      </g>
     </g>
    </g>
    <g id="ytick_11">
     <g id="line2d_95">
      <path d="M 39.77 201.962494 
L 704.380224 201.962494 
" clip-path="url(#pf18ce58de0)" style="fill: none; stroke: #d3d3d3; stroke-opacity: 0.2; stroke-width: 0.8; stroke-linecap: square"/>
     </g>
     <g id="line2d_96">
      <g>
       <use xlink:href="#me7529c0709" x="39.77" y="201.962494" style="stroke: #000000; stroke-width: 0.6"/>
      </g>
     </g>
    </g>
    <g id="ytick_12">
     <g id="line2d_97">
      <path d="M 39.77 172.958349 
L 704.380224 172.958349 
" clip-path="url(#pf18ce58de0)" style="fill: none; stroke: #d3d3d3; stroke-opacity: 0.2; stroke-width: 0.8; stroke-linecap: square"/>
     </g>
     <g id="line2d_98">
      <g>
       <use xlink:href="#me7529c0709" x="39.77" y="172.958349" style="stroke: #000000; stroke-width: 0.6"/>
      </g>
     </g>
    </g>
    <g id="ytick_13">
     <g id="line2d_99">
      <path d="M 39.77 158.456276 
L 704.380224 158.456276 
" clip-path="url(#pf18ce58de0)" style="fill: none; stroke: #d3d3d3; stroke-opacity: 0.2; stroke-width: 0.8; stroke-linecap: square"/>
     </g>
     <g id="line2d_100">
      <g>
       <use xlink:href="#me7529c0709" x="39.77" y="158.456276" style="stroke: #000000; stroke-width: 0.6"/>
      </g>
     </g>
    </g>
    <g id="ytick_14">
     <g id="line2d_101">
      <path d="M 39.77 143.954204 
L 704.380224 143.954204 
" clip-path="url(#pf18ce58de0)" style="fill: none; stroke: #d3d3d3; stroke-opacity: 0.2; stroke-width: 0.8; stroke-linecap: square"/>
     </g>
     <g id="line2d_102">
      <g>
       <use xlink:href="#me7529c0709" x="39.77" y="143.954204" style="stroke: #000000; stroke-width: 0.6"/>
      </g>
     </g>
    </g>
    <g id="ytick_15">
     <g id="line2d_103">
      <path d="M 39.77 114.950058 
L 704.380224 114.950058 
" clip-path="url(#pf18ce58de0)" style="fill: none; stroke: #d3d3d3; stroke-opacity: 0.2; stroke-width: 0.8; stroke-linecap: square"/>
     </g>
     <g id="line2d_104">
      <g>
       <use xlink:href="#me7529c0709" x="39.77" y="114.950058" style="stroke: #000000; stroke-width: 0.6"/>
      </g>
     </g>
    </g>
    <g id="ytick_16">
     <g id="line2d_105">
      <path d="M 39.77 100.447986 
L 704.380224 100.447986 
" clip-path="url(#pf18ce58de0)" style="fill: none; stroke: #d3d3d3; stroke-opacity: 0.2; stroke-width: 0.8; stroke-linecap: square"/>
     </g>
     <g id="line2d_106">
      <g>
       <use xlink:href="#me7529c0709" x="39.77" y="100.447986" style="stroke: #000000; stroke-width: 0.6"/>
      </g>
     </g>
    </g>
    <g id="ytick_17">
     <g id="line2d_107">
      <path d="M 39.77 85.945913 
L 704.380224 85.945913 
" clip-path="url(#pf18ce58de0)" style="fill: none; stroke: #d3d3d3; stroke-opacity: 0.2; stroke-width: 0.8; stroke-linecap: square"/>
     </g>
     <g id="line2d_108">
      <g>
       <use xlink:href="#me7529c0709" x="39.77" y="85.945913" style="stroke: #000000; stroke-width: 0.6"/>
      </g>
     </g>
    </g>
    <g id="ytick_18">
     <g id="line2d_109">
      <path d="M 39.77 56.941768 
L 704.380224 56.941768 
" clip-path="url(#pf18ce58de0)" style="fill: none; stroke: #d3d3d3; stroke-opacity: 0.2; stroke-width: 0.8; stroke-linecap: square"/>
     </g>
     <g id="line2d_110">
      <g>
       <use xlink:href="#me7529c0709" x="39.77" y="56.941768" style="stroke: #000000; stroke-width: 0.6"/>
      </g>
     </g>
    </g>
    <g id="ytick_19">
     <g id="line2d_111">
      <path d="M 39.77 42.439695 
L 704.380224 42.439695 
" clip-path="url(#pf18ce58de0)" style="fill: none; stroke: #d3d3d3; stroke-opacity: 0.2; stroke-width: 0.8; stroke-linecap: square"/>
     </g>
     <g id="line2d_112">
      <g>
       <use xlink:href="#me7529c0709" x="39.77" y="42.439695" style="stroke: #000000; stroke-width: 0.6"/>
      </g>
     </g>
    </g>
    <g id="ytick_20">
     <g id="line2d_113">
      <path d="M 39.77 27.937623 
L 704.380224 27.937623 
" clip-path="url(#pf18ce58de0)" style="fill: none; stroke: #d3d3d3; stroke-opacity: 0.2; stroke-width: 0.8; stroke-linecap: square"/>
     </g>
     <g id="line2d_114">
      <g>
       <use xlink:href="#me7529c0709" x="39.77" y="27.937623" style="stroke: #000000; stroke-width: 0.6"/>
      </g>
     </g>
    </g>
    <g id="text_15">
     <!-- Esfuerzo [MPa] -->
     <g transform="translate(18.827813 208.157188)rotate(-90)scale(0.1 -0.1)">
      <defs>
       <path id="DejaVuSans-45" d="M 628 4666 
L 3578 4666 
L 3578 4134 
L 1259 4134 
L 1259 2753 
L 3481 2753 
L 3481 2222 
L 1259 2222 
L 1259 531 
L 3634 531 
L 3634 0 
L 628 0 
L 628 4666 
z
" transform="scale(0.015625)"/>
       <path id="DejaVuSans-73" d="M 2834 3397 
L 2834 2853 
Q 2591 2978 2328 3040 
Q 2066 3103 1784 3103 
Q 1356 3103 1142 2972 
Q 928 2841 928 2578 
Q 928 2378 1081 2264 
Q 1234 2150 1697 2047 
L 1894 2003 
Q 2506 1872 2764 1633 
Q 3022 1394 3022 966 
Q 3022 478 2636 193 
Q 2250 -91 1575 -91 
Q 1294 -91 989 -36 
Q 684 19 347 128 
L 347 722 
Q 666 556 975 473 
Q 1284 391 1588 391 
Q 1994 391 2212 530 
Q 2431 669 2431 922 
Q 2431 1156 2273 1281 
Q 2116 1406 1581 1522 
L 1381 1569 
Q 847 1681 609 1914 
Q 372 2147 372 2553 
Q 372 3047 722 3315 
Q 1072 3584 1716 3584 
Q 2034 3584 2315 3537 
Q 2597 3491 2834 3397 
z
" transform="scale(0.015625)"/>
       <path id="DejaVuSans-75" d="M 544 1381 
L 544 3500 
L 1119 3500 
L 1119 1403 
Q 1119 906 1312 657 
Q 1506 409 1894 409 
Q 2359 409 2629 706 
Q 2900 1003 2900 1516 
L 2900 3500 
L 3475 3500 
L 3475 0 
L 2900 0 
L 2900 538 
Q 2691 219 2414 64 
Q 2138 -91 1772 -91 
Q 1169 -91 856 284 
Q 544 659 544 1381 
z
M 1991 3584 
L 1991 3584 
z
" transform="scale(0.015625)"/>
       <path id="DejaVuSans-7a" d="M 353 3500 
L 3084 3500 
L 3084 2975 
L 922 459 
L 3084 459 
L 3084 0 
L 275 0 
L 275 525 
L 2438 3041 
L 353 3041 
L 353 3500 
z
" transform="scale(0.015625)"/>
       <path id="DejaVuSans-4d" d="M 628 4666 
L 1569 4666 
L 2759 1491 
L 3956 4666 
L 4897 4666 
L 4897 0 
L 4281 0 
L 4281 4097 
L 3078 897 
L 2444 897 
L 1241 4097 
L 1241 0 
L 628 0 
L 628 4666 
z
" transform="scale(0.015625)"/>
       <path id="DejaVuSans-50" d="M 1259 4147 
L 1259 2394 
L 2053 2394 
Q 2494 2394 2734 2622 
Q 2975 2850 2975 3272 
Q 2975 3691 2734 3919 
Q 2494 4147 2053 4147 
L 1259 4147 
z
M 628 4666 
L 2053 4666 
Q 2838 4666 3239 4311 
Q 3641 3956 3641 3272 
Q 3641 2581 3239 2228 
Q 2838 1875 2053 1875 
L 1259 1875 
L 1259 0 
L 628 0 
L 628 4666 
z
" transform="scale(0.015625)"/>
      </defs>
      <use xlink:href="#DejaVuSans-45"/>
      <use xlink:href="#DejaVuSans-73" x="63.183594"/>
      <use xlink:href="#DejaVuSans-66" x="115.283203"/>
      <use xlink:href="#DejaVuSans-75" x="150.488281"/>
      <use xlink:href="#DejaVuSans-65" x="213.867188"/>
      <use xlink:href="#DejaVuSans-72" x="275.390625"/>
      <use xlink:href="#DejaVuSans-7a" x="316.503906"/>
      <use xlink:href="#DejaVuSans-6f" x="368.994141"/>
      <use xlink:href="#DejaVuSans-20" x="430.175781"/>
      <use xlink:href="#DejaVuSans-5b" x="461.962891"/>
      <use xlink:href="#DejaVuSans-4d" x="500.976562"/>
      <use xlink:href="#DejaVuSans-50" x="587.255859"/>
      <use xlink:href="#DejaVuSans-61" x="643.058594"/>
      <use xlink:href="#DejaVuSans-5d" x="704.337891"/>
     </g>
    </g>
   </g>
   <g id="line2d_115">
    <path d="M 69.979556 303.308182 
L 70.444499 231.687111 
L 71.107383 166.202878 
L 71.676242 130.174182 
L 72.282639 103.92473 
L 72.91766 84.596039 
L 73.579566 70.076109 
L 74.269118 59.31359 
L 74.984178 51.438314 
L 75.53974 47.134514 
L 76.620935 43.44374 
L 77.526762 41.308861 
L 78.130405 40.286183 
L 79.03587 39.387162 
L 79.639875 39.064883 
L 80.546427 38.937403 
L 81.15007 39.888687 
L 81.452254 39.887353 
L 81.753713 39.768765 
L 82.961362 40.746081 
L 83.263546 41.32918 
L 83.565367 41.405882 
L 84.169011 42.048238 
L 85.678843 44.333099 
L 87.188676 46.90276 
L 90.207979 52.976896 
L 92.623276 58.638461 
L 94.43493 63.51429 
L 96.246946 69.275544 
L 98.058238 76.179542 
L 99.870617 84.061415 
L 102.285552 95.871005 
L 104.097569 105.782095 
L 105.90886 116.994518 
L 105.90886 116.994518 
" clip-path="url(#pf18ce58de0)" style="fill: none; stroke: #1f77b4; stroke-width: 1.5; stroke-linecap: square"/>
   </g>
   <g id="line2d_116">
    <path d="M 69.979556 303.308182 
L 70.342478 246.580976 
L 70.7054 201.326016 
L 71.068322 167.5433 
L 71.431245 143.699743 
L 71.794167 124.26478 
L 72.157089 108.614877 
L 72.520012 95.962214 
L 72.882934 85.391547 
L 73.245856 76.61761 
L 73.608778 69.54132 
L 73.971701 63.529815 
L 74.334623 58.470956 
L 74.697545 54.284516 
L 75.060467 50.753814 
L 75.42339 47.904696 
L 75.786312 45.809982 
L 76.149234 44.607699 
L 76.512157 43.710633 
L 76.875079 42.823749 
L 77.238001 41.947145 
L 77.600923 41.159053 
L 77.963846 40.527199 
L 78.326768 40.051582 
L 78.68969 39.698342 
L 79.052612 39.372617 
L 79.415535 39.068752 
L 79.778457 38.786748 
L 80.141379 38.671818 
L 80.504301 38.890414 
L 80.867224 39.380204 
L 81.230146 39.714662 
L 81.593068 39.834904 
L 81.955991 39.950211 
L 82.318913 40.113885 
L 82.681835 40.332488 
L 83.044757 40.608216 
L 83.40768 40.941068 
L 83.770602 41.331046 
L 84.133524 41.778149 
L 84.496446 42.282377 
L 84.859369 42.842584 
L 85.222291 43.430988 
L 85.585213 44.035707 
L 85.948136 44.656742 
L 86.311058 45.294092 
L 86.67398 45.947757 
L 87.036902 46.617737 
L 87.399825 47.304033 
L 87.762747 48.003823 
L 88.125669 48.710212 
L 88.488591 49.422889 
L 88.851514 50.1429 
L 89.214436 50.878975 
L 89.577358 51.633069 
L 89.94028 52.405182 
L 90.303203 53.195314 
L 90.666125 54.003465 
L 91.029047 54.827032 
L 91.39197 55.663559 
L 91.754892 56.513046 
L 92.117814 57.377877 
L 92.480736 58.265306 
L 92.843659 59.175831 
L 93.206581 60.109454 
L 93.569503 61.068567 
L 93.932425 62.066124 
L 94.295348 63.104064 
L 94.65827 64.182388 
L 95.021192 65.301095 
L 95.384115 66.460187 
L 95.747037 67.659663 
L 96.109959 68.899522 
L 96.472881 70.179765 
L 96.835804 71.500392 
L 97.198726 72.861404 
L 97.561648 74.262162 
L 97.92457 75.70089 
L 98.287493 77.17748 
L 98.650415 78.691933 
L 99.013337 80.244248 
L 99.376259 81.834426 
L 99.739182 83.462467 
L 100.102104 85.12837 
L 100.465026 86.832137 
L 100.827949 88.573282 
L 101.190871 90.349497 
L 101.553793 92.160471 
L 101.916715 94.003937 
L 102.279638 95.878116 
L 102.64256 97.783008 
L 103.005482 99.718613 
L 103.368404 101.685002 
L 103.731327 103.697698 
L 104.094249 105.768521 
L 104.457171 107.897469 
L 104.820094 110.084543 
L 105.183016 112.329742 
L 105.545938 114.633068 
L 105.90886 116.994518 
" clip-path="url(#pf18ce58de0)" style="fill: none; stroke-dasharray: 5.55,2.4; stroke-dashoffset: 0; stroke: #ff7f0e; stroke-width: 1.5"/>
   </g>
   <g id="line2d_117">
    <path d="M 106.211407 118.969794 
L 106.512503 120.965355 
L 106.814687 122.974361 
L 107.116871 124.968674 
L 107.419055 126.972776 
L 107.720877 128.879935 
L 108.022336 130.764288 
L 108.324882 132.543151 
L 108.626704 134.250116 
L 108.928888 135.805102 
L 109.230347 137.278309 
L 109.532169 138.657587 
L 109.834353 139.840877 
L 110.135812 140.948751 
L 110.437996 141.986294 
L 110.739817 142.927066 
L 111.042364 143.716762 
L 111.343823 144.493745 
L 111.646007 145.151396 
L 111.948191 145.735794 
L 112.24965 146.289947 
L 112.551834 146.683541 
L 112.854018 147.087361 
L 113.155477 147.545222 
L 113.457661 147.90007 
L 113.759845 148.161718 
L 114.061304 148.437375 
L 114.363488 148.701485 
L 114.665309 148.916345 
L 114.967493 149.110335 
L 115.268953 149.283375 
L 115.571137 149.421001 
L 115.87332 149.562715 
L 116.17478 149.736134 
L 116.476964 149.82425 
L 116.779148 149.927523 
L 117.080969 150.027696 
L 117.382791 150.153909 
L 117.684975 150.239424 
L 117.986796 150.315058 
L 118.28898 150.422047 
L 118.590439 150.440388 
L 118.892623 150.437037 
L 119.194082 150.504032 
L 119.496266 150.516241 
L 119.798813 150.553554 
L 120.100634 150.601159 
L 120.402093 150.614935 
L 120.70464 150.609255 
L 121.006461 150.59102 
L 121.307921 150.603296 
L 121.610104 150.580369 
L 121.912651 150.582553 
L 122.213748 150.627311 
L 122.515569 150.644219 
L 122.817753 150.646223 
L 123.119937 150.66402 
L 123.421759 150.690928 
L 123.723943 150.700583 
L 124.025402 150.722906 
L 124.327586 150.738573 
L 124.630132 150.761765 
L 124.931953 150.766795 
L 125.233376 150.784247 
L 125.535959 150.738739 
L 125.837382 150.673005 
L 126.13924 150.626627 
L 126.441061 150.567131 
L 126.743245 150.497044 
L 127.045067 150.386685 
L 127.347251 150.318987 
L 127.649072 150.293094 
L 127.950894 150.229948 
L 128.253078 150.225522 
L 128.555624 150.171089 
L 128.856721 150.185521 
L 129.158506 150.173438 
L 129.46069 150.19377 
L 129.762548 150.171361 
L 130.06437 150.180034 
L 130.366191 150.12434 
L 130.668375 150.072242 
L 130.970559 150.039282 
L 131.272018 149.993867 
L 131.574202 149.960323 
L 131.876386 149.917629 
L 132.177845 149.869626 
L 132.480029 149.768497 
L 132.782576 149.737016 
L 133.083999 149.738768 
L 133.386581 149.702318 
L 133.687678 149.664043 
L 133.9895 149.653704 
L 134.291683 149.653174 
L 134.593505 149.639749 
L 134.896051 149.606219 
L 135.197511 149.599975 
L 135.499694 149.531673 
L 135.801154 149.497797 
L 136.103338 149.454127 
L 136.405521 149.409163 
L 136.706981 149.391293 
L 137.009128 149.394047 
L 137.311349 149.384704 
L 137.61317 149.372899 
L 137.914992 149.355924 
L 138.216813 149.35552 
L 138.518635 149.350602 
L 138.820819 149.352839 
L 139.12264 149.343496 
L 139.424824 149.310502 
L 139.72661 149.307317 
L 140.02883 149.255665 
L 140.330289 149.255426 
L 140.632437 149.212525 
L 140.934295 149.19731 
L 141.236478 149.133606 
L 141.5383 149.113214 
L 141.840484 149.084847 
" clip-path="url(#pf18ce58de0)" style="fill: none; stroke: #2ca02c; stroke-width: 1.5; stroke-linecap: square"/>
   </g>
   <g id="line2d_118">
    <path d="M 106.211407 118.969794 
L 106.571296 121.370726 
L 106.931186 123.736197 
L 107.291076 126.066207 
L 107.650965 128.360757 
L 108.010855 130.619846 
L 108.370745 132.78256 
L 108.730634 134.779755 
L 109.090524 136.611363 
L 109.450414 138.277384 
L 109.810303 139.777817 
L 110.170193 141.112663 
L 110.530083 142.291361 
L 110.889972 143.343699 
L 111.249862 144.27186 
L 111.609752 145.075845 
L 111.969641 145.775359 
L 112.329531 146.399183 
L 112.689421 146.947566 
L 113.04931 147.420506 
L 113.4092 147.826575 
L 113.76909 148.19027 
L 114.128979 148.513107 
L 114.488869 148.795085 
L 114.848759 149.036205 
L 115.208648 149.240321 
L 115.568538 149.419792 
L 115.928428 149.593203 
L 116.288317 149.787165 
L 116.648207 149.88993 
L 117.008097 150.002353 
L 117.367986 150.132332 
L 117.727876 150.251698 
L 118.087766 150.33529 
L 118.447655 150.387481 
L 118.807545 150.427049 
L 119.167435 150.470954 
L 119.527324 150.520874 
L 119.887214 150.577639 
L 120.247104 150.609584 
L 120.606993 150.60993 
L 120.966883 150.607919 
L 121.326773 150.607214 
L 121.686662 150.609294 
L 122.046552 150.619575 
L 122.406442 150.638418 
L 122.766331 150.653398 
L 123.126221 150.664287 
L 123.486111 150.684249 
L 123.846 150.709512 
L 124.20589 150.736057 
L 124.56578 150.760577 
L 124.925669 150.766906 
L 125.285559 150.748258 
L 125.645449 150.705377 
L 126.005338 150.649653 
L 126.365228 150.584195 
L 126.725118 150.486047 
L 127.085007 150.375705 
L 127.444897 150.291133 
L 127.804787 150.232415 
L 128.164676 150.19442 
L 128.524566 150.172259 
L 128.884456 150.165932 
L 129.244345 150.174529 
L 129.604235 150.175977 
L 129.964125 150.160836 
L 130.324014 150.129134 
L 130.683904 150.080971 
L 131.043794 150.029409 
L 131.403683 149.98549 
L 131.763573 149.936928 
L 132.123463 149.868539 
L 132.483352 149.785499 
L 132.843242 149.730324 
L 133.203132 149.710022 
L 133.563022 149.693438 
L 133.922911 149.671256 
L 134.282801 149.653501 
L 134.642691 149.634885 
L 135.00258 149.604407 
L 135.36247 149.564047 
L 135.72236 149.506179 
L 136.082249 149.456986 
L 136.442139 149.420178 
L 136.802029 149.403001 
L 137.161918 149.387537 
L 137.521808 149.372517 
L 137.881698 149.357351 
L 138.241587 149.341717 
L 138.601477 149.325615 
L 138.961367 149.312546 
L 139.321256 149.309491 
L 139.681146 149.311294 
L 140.041036 149.254589 
L 140.400925 149.25331 
L 140.760815 149.208168 
L 141.120705 149.146173 
L 141.480594 149.117197 
L 141.840484 149.084847 
" clip-path="url(#pf18ce58de0)" style="fill: none; stroke-dasharray: 5.55,2.4; stroke-dashoffset: 0; stroke: #d62728; stroke-width: 1.5"/>
   </g>
   <g id="line2d_119">
    <path d="M 142.141943 149.090547 
L 143.652138 149.132591 
L 148.784917 149.27676 
L 152.106041 149.089286 
L 153.615874 148.845249 
L 154.823486 148.604915 
L 156.031533 148.409047 
L 157.541329 148.190398 
L 159.352658 148.021226 
L 162.070863 148.052752 
L 163.882119 147.945764 
L 168.109469 147.870939 
L 171.430919 147.738005 
L 172.940027 147.704003 
L 174.752044 147.574924 
L 176.865157 147.543703 
L 181.394655 147.820474 
L 183.809952 147.656564 
L 185.92379 147.681893 
L 187.433659 147.92593 
L 190.75511 148.027304 
L 195.887924 147.827508 
L 196.793715 147.870368 
L 198.907589 147.91086 
L 200.115202 147.879692 
L 204.342516 147.526138 
L 205.248379 147.370503 
L 206.153445 147.301756 
L 211.890628 147.297396 
L 213.400786 147.384517 
L 214.305889 147.41546 
L 214.910257 147.493822 
L 217.325554 147.686783 
L 218.533927 147.832412 
L 220.647403 147.950847 
L 221.553266 147.999607 
L 222.459057 148.035287 
L 223.0627 148.097166 
L 226.988229 148.586315 
L 231.215506 149.264324 
L 232.423191 149.389661 
L 233.328656 149.548707 
L 237.858117 150.05556 
L 238.763582 150.086237 
L 241.782885 150.338429 
L 242.387289 150.397574 
L 242.990896 150.451782 
L 243.594901 150.472041 
L 244.198907 150.566673 
L 254.464826 151.100368 
L 255.974659 151.166135 
L 258.691415 151.346356 
L 261.107437 151.527805 
L 261.71108 151.507904 
L 262.315448 151.582424 
L 266.845308 151.534938 
L 270.165744 151.384784 
L 271.675903 151.491414 
L 272.581368 151.550413 
L 275.903579 151.721131 
L 276.808681 151.837549 
L 278.317825 151.834098 
L 279.223979 151.79358 
L 280.733449 151.69983 
L 281.94146 151.591707 
L 284.054936 151.522078 
L 287.074238 151.402375 
L 288.885892 151.32339 
L 290.396087 151.405328 
L 291.905558 151.521547 
L 293.113569 151.489881 
L 297.34052 151.518189 
L 298.84999 151.563512 
L 300.360185 151.578011 
L 302.775482 151.669027 
L 304.284953 151.659896 
L 304.889284 151.65904 
L 311.833427 151.473371 
L 312.73958 151.369422 
L 313.343586 151.324033 
L 314.24905 151.302985 
L 316.665072 151.273369 
L 317.570863 151.327942 
L 318.778186 151.26461 
L 319.382916 151.180747 
L 319.985834 151.195505 
L 320.590202 151.083779 
L 321.496029 151.021389 
L 323.005862 151.074993 
L 325.421123 151.139685 
L 326.326986 151.237045 
L 330.252442 151.505986 
L 331.460127 151.656658 
L 332.969561 151.647029 
L 333.875424 151.574972 
L 342.330414 151.371313 
L 344.141706 151.516331 
L 350.482459 151.363072 
L 353.199614 151.236401 
L 355.615274 151.222991 
L 359.238909 151.310344 
L 361.050599 151.442893 
L 362.560069 151.482124 
L 364.673907 151.474101 
L 366.18374 151.468202 
L 368.900859 151.425003 
L 369.806686 151.448467 
L 371.920488 151.468587 
L 373.12781 151.493332 
L 374.034398 151.498892 
L 374.638005 151.52663 
L 376.751118 151.58255 
L 383.997771 151.970271 
L 388.225411 151.510943 
L 389.433422 151.573041 
L 391.244315 151.848286 
L 392.150179 152.021035 
L 394.264379 152.107094 
L 395.169844 152.067286 
L 396.377855 152.122655 
L 398.189473 152.235947 
L 398.793152 152.291124 
L 400.302985 152.328118 
L 406.643738 152.329777 
L 407.549601 152.388656 
L 409.058709 152.406188 
L 409.663077 152.443905 
L 412.380558 152.651917 
L 413.286349 152.728859 
L 416.607473 153.098829 
L 418.419091 153.291426 
L 422.948951 153.715637 
L 424.760279 153.862845 
L 427.477398 154.10225 
L 432.610901 154.428206 
L 433.81855 154.397495 
L 435.328382 154.231137 
L 440.762983 154.319651 
L 442.574673 154.488585 
L 448.010034 154.944747 
L 448.915426 155.025976 
L 451.63327 155.097987 
L 452.538408 155.003407 
L 454.350063 154.601313 
L 457.067544 153.865426 
L 459.483566 153.415223 
L 460.389393 153.345381 
L 461.597368 153.33846 
L 462.80469 153.321658 
L 466.125814 153.238924 
L 467.636734 153.185652 
L 468.843658 153.223422 
L 471.561465 153.315507 
L 474.278983 153.469483 
L 475.788054 153.516431 
L 476.996428 153.602471 
L 478.807792 153.667236 
L 479.713909 153.732777 
L 480.61941 153.760654 
L 482.129206 153.832931 
L 486.658016 153.955135 
L 490.885329 154.439161 
L 492.999131 154.953155 
L 496.924297 155.165871 
L 504.472663 154.994582 
L 505.077067 155.045345 
L 513.531658 155.168698 
L 514.135012 155.104649 
L 518.664473 155.025869 
L 519.5703 155.095492 
L 521.079807 155.180058 
L 522.891787 155.194783 
L 525.608906 155.123608 
L 537.0828 154.602488 
L 538.59198 154.595673 
L 540.10174 154.531856 
L 547.651338 154.531969 
L 550.066273 154.716769 
L 551.576033 154.726603 
L 553.085902 154.749198 
L 554.897628 154.797838 
L 558.218716 154.9234 
L 560.634304 154.759098 
L 561.842387 154.651134 
L 564.257648 154.568632 
L 571.202407 153.459649 
L 573.617668 153.243336 
L 576.33562 152.999133 
L 578.750555 152.90385 
L 584.185916 152.841507 
L 585.997896 152.819138 
L 586.601503 152.804194 
L 588.714653 152.740982 
L 589.318985 152.729363 
L 590.828382 152.702667 
L 592.036466 152.680391 
L 594.753911 152.843631 
L 595.659738 152.856537 
L 596.263417 152.884766 
L 602.000564 152.34127 
L 603.51036 152.375139 
L 604.416187 152.505784 
L 606.227515 152.62617 
L 607.434838 152.697478 
L 610.45443 152.567722 
L 610.45443 152.567722 
" clip-path="url(#pf18ce58de0)" style="fill: none; stroke: #9467bd; stroke-width: 1.5; stroke-linecap: square"/>
   </g>
   <g id="line2d_120">
    <path d="M 142.141943 149.090547 
L 146.872372 149.236723 
L 151.602801 149.16516 
L 156.333231 148.306984 
L 161.06366 148.111485 
L 165.794089 147.901304 
L 170.524518 147.773704 
L 175.254947 147.562075 
L 179.985376 147.693648 
L 184.715806 147.622659 
L 189.446235 148.043927 
L 194.176664 147.926461 
L 198.907093 147.916439 
L 203.637522 147.561959 
L 208.367951 147.211863 
L 213.098381 147.363744 
L 217.82881 147.770126 
L 222.559239 148.002695 
L 227.289668 148.605041 
L 232.020097 149.313634 
L 236.750526 149.950584 
L 241.480956 150.330873 
L 246.211385 150.406336 
L 250.941814 150.814396 
L 255.672243 151.114589 
L 260.402672 151.406319 
L 265.133101 151.473883 
L 269.863531 151.410421 
L 274.59396 151.621741 
L 279.324389 151.778682 
L 284.054818 151.527734 
L 288.785247 151.342727 
L 293.515676 151.679243 
L 298.246106 151.614994 
L 302.976535 151.660362 
L 307.706964 151.504756 
L 312.437393 151.381874 
L 317.167822 151.331537 
L 321.898251 151.055492 
L 326.62868 151.246683 
L 331.35911 151.643872 
L 336.089539 151.486492 
L 340.819968 151.407234 
L 345.550397 151.520692 
L 350.280826 151.397832 
L 355.011255 151.216483 
L 359.741685 151.355002 
L 364.472114 151.479241 
L 369.202543 151.426357 
L 373.932972 151.513676 
L 378.663401 151.675308 
L 383.39383 151.714774 
L 388.12426 151.55984 
L 392.854689 152.054347 
L 397.585118 152.156536 
L 402.315547 152.319347 
L 407.045976 152.389345 
L 411.776405 152.587131 
L 416.506835 153.062598 
L 421.237264 153.630235 
L 425.967693 153.961552 
L 430.698122 154.340895 
L 435.428551 154.247166 
L 440.15898 154.252591 
L 444.88941 154.631399 
L 449.619839 155.021819 
L 454.350268 154.577248 
L 459.080697 153.590144 
L 463.811126 153.271608 
L 468.541555 153.224886 
L 473.271985 153.410337 
L 478.002414 153.647234 
L 482.732843 153.852638 
L 487.463272 154.002384 
L 492.193701 154.772236 
L 496.92413 155.167708 
L 501.654559 155.067476 
L 506.384989 155.098496 
L 511.115418 155.162294 
L 515.845847 154.991071 
L 520.576276 155.17002 
L 525.306705 155.123187 
L 530.037134 154.876829 
L 534.767564 154.673855 
L 539.497993 154.566285 
L 544.228422 154.452966 
L 548.958851 154.643986 
L 553.68928 154.720251 
L 558.419709 154.81407 
L 563.150139 154.644275 
L 567.880568 153.895818 
L 572.610997 153.355811 
L 577.341426 152.989097 
L 582.071855 152.816654 
L 586.802284 152.81328 
L 591.532714 152.71289 
L 596.263143 152.839966 
L 600.993572 152.407469 
L 605.724001 152.645549 
L 610.45443 152.567722 
" clip-path="url(#pf18ce58de0)" style="fill: none; stroke-dasharray: 5.55,2.4; stroke-dashoffset: 0; stroke: #8c564b; stroke-width: 1.5"/>
   </g>
   <g id="line2d_121">
    <path d="M 610.756976 152.51384 
L 619.814921 152.22736 
L 625.249557 151.358115 
L 627.363722 151.657958 
L 629.17505 151.948997 
L 629.779055 152.029263 
L 632.798648 152.992265 
L 635.817987 154.374662 
L 638.535794 156.505035 
L 640.045301 157.988342 
L 641.554771 159.653966 
L 643.064277 161.638611 
L 644.271527 163.2847 
L 645.480263 165.073948 
L 647.291917 168.123694 
L 648.801713 171.040738 
L 649.707214 173.342633 
L 650.311618 175.197257 
L 651.217373 179.164836 
L 653.028303 190.106434 
L 653.93413 194.062214 
L 655.142503 198.216046 
L 656.350188 201.742147 
L 658.765485 208.554691 
L 661.78515 217.721481 
L 667.521608 235.562015 
L 670.239742 244.881148 
L 671.749248 251.141769 
L 672.956498 257.074245 
L 673.560214 260.875764 
L 673.862325 263.617783 
L 674.170669 280.768283 
L 674.170669 280.768283 
" clip-path="url(#pf18ce58de0)" style="fill: none; stroke: #e377c2; stroke-width: 1.5; stroke-linecap: square"/>
   </g>
   <g id="line2d_122">
    <path d="M 610.756976 152.51384 
L 611.397519 152.470797 
L 612.038061 152.493995 
L 612.678603 152.532364 
L 613.319146 152.507395 
L 613.959688 152.458085 
L 614.600231 152.402493 
L 615.240773 152.396212 
L 615.881315 152.417409 
L 616.521858 152.43955 
L 617.1624 152.46475 
L 617.802942 152.462683 
L 618.443485 152.422754 
L 619.084027 152.339159 
L 619.724569 152.259112 
L 620.365112 152.138256 
L 621.005654 152.051154 
L 621.646196 151.936714 
L 622.286739 151.78472 
L 622.927281 151.667685 
L 623.567823 151.541839 
L 624.208366 151.417787 
L 624.848908 151.395525 
L 625.48945 151.355769 
L 626.129993 151.433723 
L 626.770535 151.542538 
L 627.411077 151.668266 
L 628.05162 151.785176 
L 628.692162 151.827366 
L 629.332704 151.933512 
L 629.973247 152.096318 
L 630.613789 152.289249 
L 631.254332 152.482296 
L 631.894874 152.685933 
L 632.535416 152.896347 
L 633.175959 153.141031 
L 633.816501 153.422156 
L 634.457043 153.72346 
L 635.097586 154.041142 
L 635.738128 154.379931 
L 636.37867 154.748993 
L 637.019213 155.164997 
L 637.659755 155.725637 
L 638.300297 156.2849 
L 638.94084 156.933071 
L 639.581382 157.54656 
L 640.221924 158.170292 
L 640.862467 158.807503 
L 641.503009 159.591127 
L 642.143551 160.34617 
L 642.784094 161.204318 
L 643.424636 162.084378 
L 644.065178 162.978051 
L 644.705721 163.885293 
L 645.346263 164.847834 
L 645.986805 165.896758 
L 646.627348 166.89792 
L 647.26789 168.052747 
L 647.908433 169.264376 
L 648.548975 170.499206 
L 649.189517 171.943956 
L 649.83006 173.825282 
L 650.470602 176.147607 
L 651.111144 178.910931 
L 651.751687 182.115255 
L 652.392229 185.746602 
L 653.032771 189.272981 
L 653.673314 192.422816 
L 654.313856 195.196109 
L 654.954398 197.59286 
L 655.594941 199.613067 
L 656.235483 201.415301 
L 656.876025 203.160026 
L 657.516568 204.957324 
L 658.15711 206.792398 
L 658.797652 208.647738 
L 659.438195 210.538466 
L 660.078737 212.465233 
L 660.719279 214.423703 
L 661.359822 216.401005 
L 662.000364 218.381953 
L 662.640906 220.310103 
L 663.281449 222.229704 
L 663.921991 224.199529 
L 664.562534 226.143523 
L 665.203076 228.113201 
L 665.843618 230.152183 
L 666.484161 232.183545 
L 667.124703 234.228898 
L 667.765245 236.378504 
L 668.405788 238.470409 
L 669.04633 240.575023 
L 669.686872 242.813614 
L 670.327415 245.192758 
L 670.967957 247.74238 
L 671.608499 250.50584 
L 672.249042 253.479227 
L 672.889584 256.732115 
L 673.530126 262.530452 
L 674.170669 280.768283 
" clip-path="url(#pf18ce58de0)" style="fill: none; stroke-dasharray: 5.55,2.4; stroke-dashoffset: 0; stroke: #7f7f7f; stroke-width: 1.5"/>
   </g>
   <g id="patch_3">
    <path d="M 39.77 316.54 
L 39.77 25.44 
" style="fill: none; stroke: #000000; stroke-width: 0.8; stroke-linejoin: miter; stroke-linecap: square"/>
   </g>
   <g id="patch_4">
    <path d="M 704.380224 316.54 
L 704.380224 25.44 
" style="fill: none; stroke: #000000; stroke-width: 0.8; stroke-linejoin: miter; stroke-linecap: square"/>
   </g>
   <g id="patch_5">
    <path d="M 39.77 316.54 
L 704.380224 316.54 
" style="fill: none; stroke: #000000; stroke-width: 0.8; stroke-linejoin: miter; stroke-linecap: square"/>
   </g>
   <g id="patch_6">
    <path d="M 39.77 25.44 
L 704.380224 25.44 
" style="fill: none; stroke: #000000; stroke-width: 0.8; stroke-linejoin: miter; stroke-linecap: square"/>
   </g>
   <g id="text_16">
    <!-- Esfuerzo vs Deformación -->
    <g transform="translate(297.356362 19.44)scale(0.12 -0.12)">
     <defs>
      <path id="DejaVuSans-76" d="M 191 3500 
L 800 3500 
L 1894 563 
L 2988 3500 
L 3597 3500 
L 2284 0 
L 1503 0 
L 191 3500 
z
" transform="scale(0.015625)"/>
     </defs>
     <use xlink:href="#DejaVuSans-45"/>
     <use xlink:href="#DejaVuSans-73" x="63.183594"/>
     <use xlink:href="#DejaVuSans-66" x="115.283203"/>
     <use xlink:href="#DejaVuSans-75" x="150.488281"/>
     <use xlink:href="#DejaVuSans-65" x="213.867188"/>
     <use xlink:href="#DejaVuSans-72" x="275.390625"/>
     <use xlink:href="#DejaVuSans-7a" x="316.503906"/>
     <use xlink:href="#DejaVuSans-6f" x="368.994141"/>
     <use xlink:href="#DejaVuSans-20" x="430.175781"/>
     <use xlink:href="#DejaVuSans-76" x="461.962891"/>
     <use xlink:href="#DejaVuSans-73" x="521.142578"/>
     <use xlink:href="#DejaVuSans-20" x="573.242188"/>
     <use xlink:href="#DejaVuSans-44" x="605.029297"/>
     <use xlink:href="#DejaVuSans-65" x="682.03125"/>
     <use xlink:href="#DejaVuSans-66" x="743.554688"/>
     <use xlink:href="#DejaVuSans-6f" x="778.759766"/>
     <use xlink:href="#DejaVuSans-72" x="839.941406"/>
     <use xlink:href="#DejaVuSans-6d" x="879.304688"/>
     <use xlink:href="#DejaVuSans-61" x="976.716797"/>
     <use xlink:href="#DejaVuSans-63" x="1037.996094"/>
     <use xlink:href="#DejaVuSans-69" x="1092.976562"/>
     <use xlink:href="#DejaVuSans-f3" x="1120.759766"/>
     <use xlink:href="#DejaVuSans-6e" x="1181.941406"/>
    </g>
   </g>
   <g id="legend_1">
    <g id="patch_7">
     <path d="M 622.481318 113.2375 
L 699.480224 113.2375 
Q 700.880224 113.2375 700.880224 111.8375 
L 700.880224 30.34 
Q 700.880224 28.94 699.480224 28.94 
L 622.481318 28.94 
Q 621.081318 28.94 621.081318 30.34 
L 621.081318 111.8375 
Q 621.081318 113.2375 622.481318 113.2375 
z
" style="fill: #ffffff; opacity: 0.8; stroke: #cccccc; stroke-linejoin: miter"/>
    </g>
    <g id="line2d_123">
     <path d="M 623.881318 34.608906 
L 630.881318 34.608906 
L 637.881318 34.608906 
" style="fill: none; stroke: #1f77b4; stroke-width: 1.5; stroke-linecap: square"/>
    </g>
    <g id="text_17">
     <!-- T1 Originales -->
     <g transform="translate(643.481318 37.058906)scale(0.07 -0.07)">
      <defs>
       <path id="DejaVuSans-54" d="M -19 4666 
L 3928 4666 
L 3928 4134 
L 2272 4134 
L 2272 0 
L 1638 0 
L 1638 4134 
L -19 4134 
L -19 4666 
z
" transform="scale(0.015625)"/>
       <path id="DejaVuSans-4f" d="M 2522 4238 
Q 1834 4238 1429 3725 
Q 1025 3213 1025 2328 
Q 1025 1447 1429 934 
Q 1834 422 2522 422 
Q 3209 422 3611 934 
Q 4013 1447 4013 2328 
Q 4013 3213 3611 3725 
Q 3209 4238 2522 4238 
z
M 2522 4750 
Q 3503 4750 4090 4092 
Q 4678 3434 4678 2328 
Q 4678 1225 4090 567 
Q 3503 -91 2522 -91 
Q 1538 -91 948 565 
Q 359 1222 359 2328 
Q 359 3434 948 4092 
Q 1538 4750 2522 4750 
z
" transform="scale(0.015625)"/>
       <path id="DejaVuSans-67" d="M 2906 1791 
Q 2906 2416 2648 2759 
Q 2391 3103 1925 3103 
Q 1463 3103 1205 2759 
Q 947 2416 947 1791 
Q 947 1169 1205 825 
Q 1463 481 1925 481 
Q 2391 481 2648 825 
Q 2906 1169 2906 1791 
z
M 3481 434 
Q 3481 -459 3084 -895 
Q 2688 -1331 1869 -1331 
Q 1566 -1331 1297 -1286 
Q 1028 -1241 775 -1147 
L 775 -588 
Q 1028 -725 1275 -790 
Q 1522 -856 1778 -856 
Q 2344 -856 2625 -561 
Q 2906 -266 2906 331 
L 2906 616 
Q 2728 306 2450 153 
Q 2172 0 1784 0 
Q 1141 0 747 490 
Q 353 981 353 1791 
Q 353 2603 747 3093 
Q 1141 3584 1784 3584 
Q 2172 3584 2450 3431 
Q 2728 3278 2906 2969 
L 2906 3500 
L 3481 3500 
L 3481 434 
z
" transform="scale(0.015625)"/>
       <path id="DejaVuSans-6c" d="M 603 4863 
L 1178 4863 
L 1178 0 
L 603 0 
L 603 4863 
z
" transform="scale(0.015625)"/>
      </defs>
      <use xlink:href="#DejaVuSans-54"/>
      <use xlink:href="#DejaVuSans-31" x="61.083984"/>
      <use xlink:href="#DejaVuSans-20" x="124.707031"/>
      <use xlink:href="#DejaVuSans-4f" x="156.494141"/>
      <use xlink:href="#DejaVuSans-72" x="235.205078"/>
      <use xlink:href="#DejaVuSans-69" x="276.318359"/>
      <use xlink:href="#DejaVuSans-67" x="304.101562"/>
      <use xlink:href="#DejaVuSans-69" x="367.578125"/>
      <use xlink:href="#DejaVuSans-6e" x="395.361328"/>
      <use xlink:href="#DejaVuSans-61" x="458.740234"/>
      <use xlink:href="#DejaVuSans-6c" x="520.019531"/>
      <use xlink:href="#DejaVuSans-65" x="547.802734"/>
      <use xlink:href="#DejaVuSans-73" x="609.326172"/>
     </g>
    </g>
    <g id="line2d_124">
     <path d="M 623.881318 44.883594 
L 630.881318 44.883594 
L 637.881318 44.883594 
" style="fill: none; stroke-dasharray: 5.55,2.4; stroke-dashoffset: 0; stroke: #ff7f0e; stroke-width: 1.5"/>
    </g>
    <g id="text_18">
     <!-- T1 interpolados -->
     <g transform="translate(643.481318 47.333594)scale(0.07 -0.07)">
      <defs>
       <path id="DejaVuSans-74" d="M 1172 4494 
L 1172 3500 
L 2356 3500 
L 2356 3053 
L 1172 3053 
L 1172 1153 
Q 1172 725 1289 603 
Q 1406 481 1766 481 
L 2356 481 
L 2356 0 
L 1766 0 
Q 1100 0 847 248 
Q 594 497 594 1153 
L 594 3053 
L 172 3053 
L 172 3500 
L 594 3500 
L 594 4494 
L 1172 4494 
z
" transform="scale(0.015625)"/>
       <path id="DejaVuSans-70" d="M 1159 525 
L 1159 -1331 
L 581 -1331 
L 581 3500 
L 1159 3500 
L 1159 2969 
Q 1341 3281 1617 3432 
Q 1894 3584 2278 3584 
Q 2916 3584 3314 3078 
Q 3713 2572 3713 1747 
Q 3713 922 3314 415 
Q 2916 -91 2278 -91 
Q 1894 -91 1617 61 
Q 1341 213 1159 525 
z
M 3116 1747 
Q 3116 2381 2855 2742 
Q 2594 3103 2138 3103 
Q 1681 3103 1420 2742 
Q 1159 2381 1159 1747 
Q 1159 1113 1420 752 
Q 1681 391 2138 391 
Q 2594 391 2855 752 
Q 3116 1113 3116 1747 
z
" transform="scale(0.015625)"/>
       <path id="DejaVuSans-64" d="M 2906 2969 
L 2906 4863 
L 3481 4863 
L 3481 0 
L 2906 0 
L 2906 525 
Q 2725 213 2448 61 
Q 2172 -91 1784 -91 
Q 1150 -91 751 415 
Q 353 922 353 1747 
Q 353 2572 751 3078 
Q 1150 3584 1784 3584 
Q 2172 3584 2448 3432 
Q 2725 3281 2906 2969 
z
M 947 1747 
Q 947 1113 1208 752 
Q 1469 391 1925 391 
Q 2381 391 2643 752 
Q 2906 1113 2906 1747 
Q 2906 2381 2643 2742 
Q 2381 3103 1925 3103 
Q 1469 3103 1208 2742 
Q 947 2381 947 1747 
z
" transform="scale(0.015625)"/>
      </defs>
      <use xlink:href="#DejaVuSans-54"/>
      <use xlink:href="#DejaVuSans-31" x="61.083984"/>
      <use xlink:href="#DejaVuSans-20" x="124.707031"/>
      <use xlink:href="#DejaVuSans-69" x="156.494141"/>
      <use xlink:href="#DejaVuSans-6e" x="184.277344"/>
      <use xlink:href="#DejaVuSans-74" x="247.65625"/>
      <use xlink:href="#DejaVuSans-65" x="286.865234"/>
      <use xlink:href="#DejaVuSans-72" x="348.388672"/>
      <use xlink:href="#DejaVuSans-70" x="389.501953"/>
      <use xlink:href="#DejaVuSans-6f" x="452.978516"/>
      <use xlink:href="#DejaVuSans-6c" x="514.160156"/>
      <use xlink:href="#DejaVuSans-61" x="541.943359"/>
      <use xlink:href="#DejaVuSans-64" x="603.222656"/>
      <use xlink:href="#DejaVuSans-6f" x="666.699219"/>
      <use xlink:href="#DejaVuSans-73" x="727.880859"/>
     </g>
    </g>
    <g id="line2d_125">
     <path d="M 623.881318 55.158281 
L 630.881318 55.158281 
L 637.881318 55.158281 
" style="fill: none; stroke: #2ca02c; stroke-width: 1.5; stroke-linecap: square"/>
    </g>
    <g id="text_19">
     <!-- T1 Originales -->
     <g transform="translate(643.481318 57.608281)scale(0.07 -0.07)">
      <use xlink:href="#DejaVuSans-54"/>
      <use xlink:href="#DejaVuSans-31" x="61.083984"/>
      <use xlink:href="#DejaVuSans-20" x="124.707031"/>
      <use xlink:href="#DejaVuSans-4f" x="156.494141"/>
      <use xlink:href="#DejaVuSans-72" x="235.205078"/>
      <use xlink:href="#DejaVuSans-69" x="276.318359"/>
      <use xlink:href="#DejaVuSans-67" x="304.101562"/>
      <use xlink:href="#DejaVuSans-69" x="367.578125"/>
      <use xlink:href="#DejaVuSans-6e" x="395.361328"/>
      <use xlink:href="#DejaVuSans-61" x="458.740234"/>
      <use xlink:href="#DejaVuSans-6c" x="520.019531"/>
      <use xlink:href="#DejaVuSans-65" x="547.802734"/>
      <use xlink:href="#DejaVuSans-73" x="609.326172"/>
     </g>
    </g>
    <g id="line2d_126">
     <path d="M 623.881318 65.432969 
L 630.881318 65.432969 
L 637.881318 65.432969 
" style="fill: none; stroke-dasharray: 5.55,2.4; stroke-dashoffset: 0; stroke: #d62728; stroke-width: 1.5"/>
    </g>
    <g id="text_20">
     <!-- T2 interpolados -->
     <g transform="translate(643.481318 67.882969)scale(0.07 -0.07)">
      <use xlink:href="#DejaVuSans-54"/>
      <use xlink:href="#DejaVuSans-32" x="61.083984"/>
      <use xlink:href="#DejaVuSans-20" x="124.707031"/>
      <use xlink:href="#DejaVuSans-69" x="156.494141"/>
      <use xlink:href="#DejaVuSans-6e" x="184.277344"/>
      <use xlink:href="#DejaVuSans-74" x="247.65625"/>
      <use xlink:href="#DejaVuSans-65" x="286.865234"/>
      <use xlink:href="#DejaVuSans-72" x="348.388672"/>
      <use xlink:href="#DejaVuSans-70" x="389.501953"/>
      <use xlink:href="#DejaVuSans-6f" x="452.978516"/>
      <use xlink:href="#DejaVuSans-6c" x="514.160156"/>
      <use xlink:href="#DejaVuSans-61" x="541.943359"/>
      <use xlink:href="#DejaVuSans-64" x="603.222656"/>
      <use xlink:href="#DejaVuSans-6f" x="666.699219"/>
      <use xlink:href="#DejaVuSans-73" x="727.880859"/>
     </g>
    </g>
    <g id="line2d_127">
     <path d="M 623.881318 75.707656 
L 630.881318 75.707656 
L 637.881318 75.707656 
" style="fill: none; stroke: #9467bd; stroke-width: 1.5; stroke-linecap: square"/>
    </g>
    <g id="text_21">
     <!-- T1 Originales -->
     <g transform="translate(643.481318 78.157656)scale(0.07 -0.07)">
      <use xlink:href="#DejaVuSans-54"/>
      <use xlink:href="#DejaVuSans-31" x="61.083984"/>
      <use xlink:href="#DejaVuSans-20" x="124.707031"/>
      <use xlink:href="#DejaVuSans-4f" x="156.494141"/>
      <use xlink:href="#DejaVuSans-72" x="235.205078"/>
      <use xlink:href="#DejaVuSans-69" x="276.318359"/>
      <use xlink:href="#DejaVuSans-67" x="304.101562"/>
      <use xlink:href="#DejaVuSans-69" x="367.578125"/>
      <use xlink:href="#DejaVuSans-6e" x="395.361328"/>
      <use xlink:href="#DejaVuSans-61" x="458.740234"/>
      <use xlink:href="#DejaVuSans-6c" x="520.019531"/>
      <use xlink:href="#DejaVuSans-65" x="547.802734"/>
      <use xlink:href="#DejaVuSans-73" x="609.326172"/>
     </g>
    </g>
    <g id="line2d_128">
     <path d="M 623.881318 85.982344 
L 630.881318 85.982344 
L 637.881318 85.982344 
" style="fill: none; stroke-dasharray: 5.55,2.4; stroke-dashoffset: 0; stroke: #8c564b; stroke-width: 1.5"/>
    </g>
    <g id="text_22">
     <!-- T3 interpolados -->
     <g transform="translate(643.481318 88.432344)scale(0.07 -0.07)">
      <use xlink:href="#DejaVuSans-54"/>
      <use xlink:href="#DejaVuSans-33" x="61.083984"/>
      <use xlink:href="#DejaVuSans-20" x="124.707031"/>
      <use xlink:href="#DejaVuSans-69" x="156.494141"/>
      <use xlink:href="#DejaVuSans-6e" x="184.277344"/>
      <use xlink:href="#DejaVuSans-74" x="247.65625"/>
      <use xlink:href="#DejaVuSans-65" x="286.865234"/>
      <use xlink:href="#DejaVuSans-72" x="348.388672"/>
      <use xlink:href="#DejaVuSans-70" x="389.501953"/>
      <use xlink:href="#DejaVuSans-6f" x="452.978516"/>
      <use xlink:href="#DejaVuSans-6c" x="514.160156"/>
      <use xlink:href="#DejaVuSans-61" x="541.943359"/>
      <use xlink:href="#DejaVuSans-64" x="603.222656"/>
      <use xlink:href="#DejaVuSans-6f" x="666.699219"/>
      <use xlink:href="#DejaVuSans-73" x="727.880859"/>
     </g>
    </g>
    <g id="line2d_129">
     <path d="M 623.881318 96.257031 
L 630.881318 96.257031 
L 637.881318 96.257031 
" style="fill: none; stroke: #e377c2; stroke-width: 1.5; stroke-linecap: square"/>
    </g>
    <g id="text_23">
     <!-- T1 Originales -->
     <g transform="translate(643.481318 98.707031)scale(0.07 -0.07)">
      <use xlink:href="#DejaVuSans-54"/>
      <use xlink:href="#DejaVuSans-31" x="61.083984"/>
      <use xlink:href="#DejaVuSans-20" x="124.707031"/>
      <use xlink:href="#DejaVuSans-4f" x="156.494141"/>
      <use xlink:href="#DejaVuSans-72" x="235.205078"/>
      <use xlink:href="#DejaVuSans-69" x="276.318359"/>
      <use xlink:href="#DejaVuSans-67" x="304.101562"/>
      <use xlink:href="#DejaVuSans-69" x="367.578125"/>
      <use xlink:href="#DejaVuSans-6e" x="395.361328"/>
      <use xlink:href="#DejaVuSans-61" x="458.740234"/>
      <use xlink:href="#DejaVuSans-6c" x="520.019531"/>
      <use xlink:href="#DejaVuSans-65" x="547.802734"/>
      <use xlink:href="#DejaVuSans-73" x="609.326172"/>
     </g>
    </g>
    <g id="line2d_130">
     <path d="M 623.881318 106.531719 
L 630.881318 106.531719 
L 637.881318 106.531719 
" style="fill: none; stroke-dasharray: 5.55,2.4; stroke-dashoffset: 0; stroke: #7f7f7f; stroke-width: 1.5"/>
    </g>
    <g id="text_24">
     <!-- T4 interpolados -->
     <g transform="translate(643.481318 108.981719)scale(0.07 -0.07)">
      <use xlink:href="#DejaVuSans-54"/>
      <use xlink:href="#DejaVuSans-34" x="61.083984"/>
      <use xlink:href="#DejaVuSans-20" x="124.707031"/>
      <use xlink:href="#DejaVuSans-69" x="156.494141"/>
      <use xlink:href="#DejaVuSans-6e" x="184.277344"/>
      <use xlink:href="#DejaVuSans-74" x="247.65625"/>
      <use xlink:href="#DejaVuSans-65" x="286.865234"/>
      <use xlink:href="#DejaVuSans-72" x="348.388672"/>
      <use xlink:href="#DejaVuSans-70" x="389.501953"/>
      <use xlink:href="#DejaVuSans-6f" x="452.978516"/>
      <use xlink:href="#DejaVuSans-6c" x="514.160156"/>
      <use xlink:href="#DejaVuSans-61" x="541.943359"/>
      <use xlink:href="#DejaVuSans-64" x="603.222656"/>
      <use xlink:href="#DejaVuSans-6f" x="666.699219"/>
      <use xlink:href="#DejaVuSans-73" x="727.880859"/>
     </g>
    </g>
   </g>
  </g>
 </g>
 <defs>
  <clipPath id="pf18ce58de0">
   <rect x="39.77" y="25.44" width="664.610224" height="291.1"/>
  </clipPath>
 </defs>
</svg>
